<svg width="1419" height="335" viewBox="0 0 1419 335" fill="none" xmlns="http://www.w3.org/2000/svg">
<path d="M1292.71 216.53H1335.75V191.459C1335.75 179.561 1326.08 170 1314.28 170C1302.38 170 1292.82 179.667 1292.82 191.459V216.53H1292.71Z" fill="#323459"/>
<path d="M1298.13 229.278C1298.13 248.082 1301.21 263.379 1317.36 263.379C1333.52 263.379 1346.48 248.082 1346.48 229.278C1346.48 210.475 1333.41 195.177 1317.36 195.177C1301.32 195.177 1298.13 210.475 1298.13 229.278Z" fill="#323459"/>
<path d="M1380.81 276.553L1377.73 266.46L1305.57 288.344L1311.41 307.467L1380.81 276.553Z" fill="#DDDDDD"/>
<path d="M1389.63 265.823C1384.95 261.998 1378.04 262.636 1374.22 267.416C1373.16 268.691 1373.37 270.497 1374.64 271.56L1380.81 276.659L1389.63 265.823Z" fill="#FFCEB3"/>
<path d="M1295.58 259.555C1311.66 259.555 1324.7 249.519 1324.7 237.14C1324.7 224.76 1311.66 214.724 1295.58 214.724C1279.5 214.724 1266.46 224.76 1266.46 237.14C1266.46 249.519 1279.5 259.555 1295.58 259.555Z" fill="#323459"/>
<path d="M1321.83 211.537C1319.38 211.537 1317.36 213.556 1317.36 215.999V211.537H1323H1321.83Z" fill="#FFCEB3"/>
<path d="M1278.58 244.789V336.681H1339.04V244.789C1339.04 234.696 1333.3 225.985 1324.91 221.63C1322.57 220.461 1320.13 219.611 1317.47 219.186C1316.09 218.974 1314.6 218.868 1313.11 218.868H1304.61C1304.19 218.868 1303.87 218.868 1303.44 218.868C1289.63 219.505 1278.58 230.872 1278.58 244.789Z" fill="#DDDDDD"/>
<path d="M1303.34 219.186V317.771H1324.8V221.63C1322.47 220.461 1320.02 219.611 1317.36 219.186H1303.34Z" fill="white"/>
<path d="M1303.34 218.868V248.507H1324.8V221.736C1322.47 220.567 1320.02 219.717 1317.36 219.293C1315.98 219.08 1314.49 218.974 1313.01 218.974H1304.51C1304.08 218.974 1303.76 218.974 1303.34 218.974V218.868Z" fill="#FFCEB3"/>
<path d="M1312.58 176.905H1315.03C1322.78 176.905 1328.95 183.173 1328.95 190.822V205.801C1328.95 209.094 1326.29 211.644 1323.1 211.644H1318.53C1307.48 211.644 1298.55 202.72 1298.55 191.672V190.716C1298.55 182.96 1304.82 176.799 1312.48 176.799L1312.58 176.905Z" fill="#FFCEB3"/>
<path d="M1317.36 225.56L1303.34 218.868V204.845H1317.36V225.56Z" fill="#FFCEB3"/>
<path d="M1330.22 203.145H1328.95V198.896L1330.86 201.976C1331.18 202.401 1330.86 203.039 1330.22 203.039V203.145Z" fill="#FFCEB3"/>
<path d="M1327.35 183.279H1326.72C1320.76 183.279 1315.98 188.06 1315.98 193.796H1301V175.205H1327.57L1327.35 183.173V183.279Z" fill="#323459"/>
<path d="M1303.23 207.925H1294.94V182.429H1316.2V194.965C1316.2 202.083 1310.35 207.925 1303.23 207.925Z" fill="#323459"/>
<path d="M1289.2 224.179C1282.51 232.678 1276.03 241.07 1269.65 249.675C1266.46 253.925 1263.27 258.28 1260.19 262.636C1258.6 264.867 1257.11 267.098 1255.62 269.329L1255.09 270.178C1254.88 270.497 1254.77 270.71 1254.45 271.135L1253.07 273.365C1252.22 274.853 1251.48 276.34 1250.95 277.934C1250.63 280.058 1251.37 282.077 1252.01 283.989C1252.22 284.52 1252.33 284.945 1252.54 285.476C1252.75 285.901 1252.96 286.432 1253.07 286.857C1253.39 287.601 1253.81 288.451 1254.13 289.194C1255.62 292.275 1257.11 295.25 1258.7 298.118C1261.89 303.961 1265.08 309.804 1268.48 315.434L1278.68 311.291C1276.34 305.448 1273.9 299.393 1271.77 293.444C1270.71 290.469 1269.65 287.495 1268.8 284.732L1268.16 282.395L1268.37 282.183C1269.65 280.802 1271.03 279.208 1272.41 277.721C1275.28 274.747 1278.15 271.666 1281.23 268.585C1287.18 262.53 1293.35 256.474 1299.62 250.525C1303.87 246.382 1303.23 238.627 1298.02 233.103L1289.52 224.073L1289.2 224.179Z" fill="#DDDDDD"/>
<path d="M1279.53 307.254C1282.72 311.61 1281.76 317.559 1277.51 320.746C1275.6 322.127 1272.84 321.808 1271.46 319.896L1268.27 315.434L1279.43 307.254H1279.53Z" fill="#FFCEB3"/>
<path d="M1303.44 336.681H1324.91V317.771H1303.44V336.681Z" fill="#323459"/>
<path d="M1331.82 263.38H1383.57C1384.42 263.38 1385.16 264.123 1385.16 264.973C1385.16 265.823 1384.42 266.567 1383.57 266.567H1331.82C1330.97 266.567 1330.22 265.823 1330.22 264.973C1330.22 264.123 1330.97 263.38 1331.82 263.38Z" fill="white"/>
<path d="M1369.33 266.46H1415.45C1417.27 266.46 1418.75 264.986 1418.75 263.167V216.637C1418.75 214.818 1417.27 213.343 1415.45 213.343H1369.33C1367.51 213.343 1366.04 214.818 1366.04 216.637V263.167C1366.04 264.986 1367.51 266.46 1369.33 266.46Z" fill="#323459"/>
<path d="M975.458 280.743C977.583 273.838 985.022 269.907 991.93 272.032L996.712 273.519L992.78 286.055L975.352 280.637L975.458 280.743Z" fill="#F77F57"/>
<path d="M984.066 241.968H974.289C971.296 241.968 968.869 244.393 968.869 247.386V273.413C968.869 276.405 971.296 278.831 974.289 278.831H984.066C987.059 278.831 989.486 276.405 989.486 273.413V247.386C989.486 244.393 987.059 241.968 984.066 241.968Z" fill="#323459"/>
<path d="M1085.45 181.84C1104.46 181.84 1119.88 166.429 1119.88 147.42C1119.88 128.41 1104.46 113 1085.45 113C1066.43 113 1051.02 128.41 1051.02 147.42C1051.02 166.429 1066.43 181.84 1085.45 181.84Z" fill="#323459"/>
<path d="M1074.29 183.433C1077.48 183.433 1080.03 185.983 1080.03 189.17V183.433H1072.69H1074.18H1074.29Z" fill="#F77F57"/>
<path d="M1130.82 336.197H1051.87V209.991C1051.87 200.537 1059.52 192.782 1069.08 192.782H1113.72C1123.17 192.782 1130.93 200.43 1130.93 209.991V336.197H1130.82Z" fill="#82848A"/>
<path d="M1078.54 183.539H1072.59C1068.34 183.539 1064.94 180.14 1064.94 175.89V156.237C1064.94 146.145 1073.12 137.965 1083.22 137.965H1086.4C1096.5 137.965 1104.68 146.145 1104.68 156.237V157.512C1104.68 171.853 1092.99 183.539 1078.65 183.539H1078.54Z" fill="#F77F57"/>
<path d="M1065.36 149.119L1079.92 148.907C1083.64 148.907 1086.62 151.882 1086.62 155.494V172.066C1098.31 172.066 1107.87 163.249 1107.87 152.413C1107.87 141.577 1098.41 132.76 1086.62 132.76C1074.82 132.76 1065.36 138.177 1065.36 149.013V149.119Z" fill="#323459"/>
<path d="M1080.13 201.705L1098.41 193.419V174.616H1080.13V201.705Z" fill="#F77F57"/>
<path d="M1062.49 171.322H1064.83V163.461L1061.32 169.304C1060.79 170.154 1061.32 171.322 1062.49 171.322Z" fill="#F77F57"/>
<path d="M1098.41 180.565C1109.57 164.523 1108.93 152.094 1108.93 152.094L1096.82 146.782C1088.53 146.782 1081.94 149.013 1081.94 157.299L1084.28 157.618C1081.94 182.796 1098.41 180.458 1098.41 180.458V180.565Z" fill="#323459"/>
<path d="M1085.55 160.38H1080.67C1077.9 160.38 1075.56 158.149 1075.56 155.281V146.782H1085.55V160.38Z" fill="#323459"/>
<path d="M1080.35 167.286H1084.28V159.637H1080.35V167.286Z" fill="#323459"/>
<path d="M1084.38 172.597H1088.85C1091.29 172.597 1093.31 170.579 1093.31 168.135V164.63C1093.31 162.186 1091.29 160.168 1088.85 160.168C1086.4 160.168 1084.38 162.186 1084.38 164.63V172.597Z" fill="#F77F57"/>
<path d="M1058.14 198.731C1058.14 198.731 1057.92 200.643 1057.5 204.042C1057.07 207.442 1056.44 212.328 1055.69 218.171C1054.95 224.014 1053.99 230.813 1052.82 238.037C1052.18 241.649 1051.55 245.367 1050.91 248.979C1050.7 249.935 1050.48 250.785 1050.38 251.741L1050.06 253.122V253.76C1049.85 253.972 1049.85 254.078 1049.85 254.185C1049.74 255.353 1049.53 256.416 1049.21 257.69C1049 258.328 1048.78 258.859 1048.36 259.284C1047.93 259.709 1047.4 260.027 1046.87 260.346C1046.34 260.665 1045.81 260.984 1045.17 261.196C1044.53 261.515 1044.11 261.727 1043.05 262.046C1039.54 263.215 1035.93 264.171 1032.31 265.02C1025.19 266.72 1018.28 268.101 1012.44 269.164C1006.6 270.226 1001.71 271.076 998.2 271.607C994.693 272.138 992.78 272.457 992.78 272.457V286.267C992.78 286.267 994.587 286.267 997.775 286.267C1000.96 286.267 1005.43 286.267 1010.85 286.055C1016.27 285.842 1022.54 285.63 1029.44 285.205C1032.95 284.992 1036.46 284.674 1040.28 284.249C1042.2 284.036 1044.11 283.718 1046.23 283.399L1047.93 283.08L1050.48 282.549L1051.76 282.23L1053.03 281.912C1053.89 281.699 1054.74 281.487 1055.59 281.168C1056.44 280.849 1057.18 280.531 1058.03 280.212L1060.37 279.15C1061.11 278.725 1061.75 278.193 1062.49 277.769C1063.24 277.237 1063.87 276.812 1064.51 276.175L1066.21 274.369C1066.74 273.732 1067.28 273.094 1067.81 272.351L1069.19 270.226C1069.61 269.482 1069.93 268.739 1070.36 267.995C1071.21 266.508 1071.74 264.914 1072.48 263.427C1072.8 262.471 1073.23 261.621 1073.55 260.665C1074.18 258.859 1074.82 257.159 1075.46 255.566C1077.8 248.979 1079.71 242.924 1081.3 237.825C1082.9 232.725 1084.17 228.37 1085.02 225.395C1085.87 222.421 1086.4 220.721 1086.4 220.721C1088.53 213.497 1082.68 205.53 1073.44 203.086L1058.35 199.049L1058.14 198.731Z" fill="#82848A"/>
<path d="M1074.93 273.732C1068.44 278.3 1066.85 287.223 1071.42 293.704L1076.41 300.821C1082.9 296.253 1084.49 287.33 1079.92 280.849L1074.93 273.732Z" fill="#F77F57"/>
<path d="M704.232 323.907H770.119L767.781 336.867H704.232V323.907Z" fill="#F5876F"/>
<path d="M644.402 323.907H710.076L705.719 336.867H642.17L644.402 323.907Z" fill="#F5876F"/>
<path d="M744.295 159.563L770.119 183.041L781.383 193.346L811.033 179.535L769.481 123.762L759.811 110.802L752.903 132.367L744.295 159.563Z" fill="#003446"/>
<path d="M770.119 143.522V336.907H644.508V143.522C644.508 127.48 651.203 113.033 661.724 102.834C662.255 102.409 662.68 101.878 663.211 101.453C669.269 96.0353 676.495 92.1047 684.465 89.8737C688.185 88.8114 692.117 88.174 696.049 87.9615C696.899 87.9615 697.643 87.9615 698.493 87.9615H716.134C719.216 87.9615 722.191 88.174 725.167 88.7052C725.486 88.7052 725.804 88.8114 726.017 88.9177C726.442 88.9177 726.867 89.0239 727.292 89.1302C732.074 90.1925 736.538 91.8922 740.682 94.0169C743.339 95.3979 745.783 96.9914 748.121 98.7974C750.99 100.922 753.647 103.365 755.985 106.128C757.366 107.615 758.535 109.208 759.704 110.802C762.999 115.37 765.549 120.575 767.356 126.099C769.162 131.517 770.013 137.466 770.013 143.416L770.119 143.522Z" fill="#003446"/>
<path d="M770.119 212.786H712.946V303.616H770.119V212.786Z" fill="#003446"/>
<path d="M770.119 212.786H719.322V238.509H770.119V212.786Z" fill="#F5876F"/>
<path d="M756.091 106.128C748.865 124.294 731.118 137.042 710.395 137.042C689.673 137.042 669.056 121.956 663.105 101.453C669.162 96.0353 676.389 92.1047 684.359 89.8737C688.079 88.8114 692.011 88.174 695.943 87.9615C696.793 87.9615 697.537 87.9615 698.387 87.9615H716.027C719.109 87.9615 722.085 88.174 725.06 88.7052C725.379 88.7052 725.698 88.8114 725.911 88.9177C726.336 88.9177 726.761 89.0239 727.186 89.1302C731.968 90.1925 736.431 91.8922 740.576 94.0169C743.233 95.3979 745.677 96.9914 748.015 98.7974C750.884 100.922 753.541 103.365 755.879 106.128H756.091Z" fill="#F5876F"/>
<path d="M719.534 102.728L692.117 88.3865V58.3224H719.534V102.728Z" fill="#F5876F"/>
<path d="M644.508 300.429V186.015C644.508 186.015 684.997 172.63 708.482 139.591C731.968 106.446 728.78 89.3427 728.78 89.3427C750.246 92.3172 756.091 106.128 756.091 106.128C756.091 106.128 769.588 174.011 722.297 297.455C717.09 310.946 711.777 324.119 706.357 336.867H641.639C643.551 324.438 644.614 313.708 644.614 300.429H644.508Z" fill="#FEEDC5"/>
<path d="M710.395 285.981C757.579 162.538 744.189 94.6542 744.189 94.6542C744.189 94.6542 744.189 94.4418 743.87 94.0168C753.116 99.1161 756.091 106.021 756.091 106.021C756.091 106.021 769.588 173.905 722.297 297.348C717.09 310.84 711.777 324.013 706.357 336.761H689.46C696.686 320.507 703.7 303.404 710.395 285.875V285.981Z" fill="#FFCEB3"/>
<path d="M648.759 121.956L605.932 219.691H645.146L648.759 121.956Z" fill="#003446"/>
<path d="M700.406 239.132L703.7 219.267L605.826 219.691L606.357 229.89C607.101 244.232 620.066 254.855 634.306 252.624L700.3 239.132H700.406Z" fill="#F5876F"/>
<path d="M682.765 219.267H661.724V247.1L689.247 241.469L682.765 219.267Z" fill="#F5876F"/>
<path d="M604.869 249.756C604.869 232.864 618.578 219.267 635.369 219.267H667.462V336.867H604.869V249.756Z" fill="#003446"/>
<path d="M687.401 218.051L699.94 217.898C705.253 217.833 709.663 222.135 709.728 227.446L709.914 242.636L692.699 242.847C684.517 242.947 677.848 236.441 677.748 228.262L677.743 227.837C677.678 222.525 681.982 218.117 687.295 218.052L687.401 218.051Z" fill="#F5876F"/>
<path d="M728.674 73.3013C723.573 73.3013 719.322 77.4444 719.322 82.6498V73.3013H731.118H728.674Z" fill="#F5876F"/>
<path d="M679.789 29.533V31.5514C679.789 36.6507 680.746 41.4312 682.34 45.893C688.185 62.0405 703.7 73.5138 721.872 73.5138H731.437C738.238 73.5138 743.87 67.9896 743.87 61.0844V29.4268C743.87 25.3899 743.02 21.6717 741.639 18.166C737.175 7.5426 726.761 0 714.433 0H709.332C693.073 0 679.896 13.173 679.896 29.4268L679.789 29.533Z" fill="#F5876F"/>
<path d="M696.265 67.0545C708.224 64.0738 715.502 51.966 712.52 40.011C709.538 28.056 697.426 20.7809 685.467 23.7616C673.508 26.7423 666.231 38.8501 669.212 50.8051C672.194 62.7601 684.306 70.0352 696.265 67.0545Z" fill="#003446"/>
<path d="M746.527 55.5603H743.87V46.7429L747.802 53.3294C748.44 54.2855 747.696 55.6665 746.527 55.6665V55.5603Z" fill="#F5876F"/>
<path d="M679.789 29.5329V31.5514C679.789 36.6506 680.746 41.4311 682.34 45.893H705.4C722.722 45.893 737.281 34.2072 741.639 18.2722C737.175 7.6488 726.761 0.106201 714.433 0.106201H709.332C693.073 0.106201 679.896 13.2792 679.896 29.5329H679.789Z" fill="#003446"/>
<path d="M709.651 61.0844C714.581 61.0844 718.578 57.0892 718.578 52.1608C718.578 47.2324 714.581 43.2372 709.651 43.2372C704.721 43.2372 700.725 47.2324 700.725 52.1608C700.725 57.0892 704.721 61.0844 709.651 61.0844Z" fill="#FFDAAE"/>
<path d="M865.124 145.54L854.497 128.437L781.383 193.345L788.504 200.676C798.599 210.98 815.284 210.343 824.529 199.295L865.124 145.54Z" fill="#F5876F"/>
<path d="M853.647 129.393L835.794 144.903L851.203 164.025L865.124 145.54L853.647 129.393Z" fill="#FFDAAE"/>
<path d="M847.219 130.21L851.161 126.649C858.1 120.381 868.836 120.85 875.177 127.865L880.52 133.777L867.747 145.315C861.675 150.799 852.369 150.328 846.883 144.258L846.598 143.943C843.036 140.002 843.348 133.85 847.29 130.289L847.219 130.21Z" fill="#F5876F"/>
<path d="M646.421 185.378L625.273 175.604L605.932 219.691H645.146L646.421 185.378Z" fill="#F5876F"/>
<path d="M770.119 183.041L788.504 149.365L805.4 171.992L781.383 193.345L770.119 183.041Z" fill="#F5876F"/>
<path d="M777.77 118.769H877.558C879.258 118.769 880.533 120.15 880.533 121.744C880.533 123.444 879.152 124.718 877.558 124.718H777.77C776.07 124.718 774.795 123.337 774.795 121.744C774.795 120.044 776.176 118.769 777.77 118.769Z" fill="white"/>
<path d="M939.194 124.825L850.353 124.825C846.846 124.825 843.976 121.956 843.976 118.451V28.6832C843.976 25.1774 846.846 22.3091 850.353 22.3091L939.194 22.3091C942.701 22.3091 945.57 25.1774 945.57 28.6832V118.451C945.57 121.956 942.701 124.825 939.194 124.825Z" fill="#003446"/>
<path d="M345.499 298.2L420.845 224.261L429.24 216.081L442.63 226.704L370.154 317.747L345.499 298.2Z" fill="#9E5D59"/>
<path d="M453.576 231.06C452.513 221.393 443.693 214.381 434.022 215.55L429.346 216.081L431.365 233.61L453.682 231.06H453.576Z" fill="#9E5D59"/>
<path d="M369.516 143.417C384.072 143.417 395.871 131.907 395.871 117.709C395.871 103.51 384.072 92 369.516 92C354.961 92 343.161 103.51 343.161 117.709C343.161 131.907 354.961 143.417 369.516 143.417Z" fill="#342939"/>
<path d="M385.563 153.403C381.631 153.403 378.443 156.59 378.443 160.521V153.403H387.476H385.563Z" fill="#9E5D59"/>
<path d="M405.117 336.231H329.984V183.68C329.984 173.375 338.273 165.089 348.581 165.089H364.841C387.051 165.089 405.117 183.149 405.117 205.351V336.231Z" fill="#B0B0AD"/>
<path d="M359.74 165.089L349.431 247.633H317.869V186.336C317.869 174.65 327.327 165.195 339.017 165.195H359.633L359.74 165.089Z" fill="#B0B0AD"/>
<path d="M317.869 247.632H349.431L338.379 336.231H317.869V247.632Z" fill="#9E5D59"/>
<path d="M387.689 153.722H380.356C362.609 153.722 348.262 139.38 348.262 121.639V120.046C348.262 107.616 358.358 97.5242 370.792 97.5242H374.724C387.157 97.5242 397.253 107.616 397.253 120.046V144.267C397.253 149.472 393.002 153.722 387.795 153.722H387.689Z" fill="#9E5D59"/>
<path d="M378.443 176.031L355.914 165.832V142.567H378.443V176.031Z" fill="#9E5D59"/>
<path d="M400.122 139.911H397.147V130.244L401.504 137.468C402.141 138.53 401.397 140.018 400.122 140.018V139.911Z" fill="#9E5D59"/>
<path d="M355.914 150.004C342.205 130.244 343.161 119.515 343.161 119.515L357.933 108.466C368.135 108.466 376.318 111.228 376.318 121.427L373.342 121.852C376.318 152.872 355.914 150.004 355.914 150.004Z" fill="#342939"/>
<path d="M373.236 140.124H367.71C364.628 140.124 362.184 137.68 362.184 134.6V130.244C362.184 127.163 364.628 124.72 367.71 124.72C370.792 124.72 373.236 127.163 373.236 130.244V140.018V140.124Z" fill="#9E5D59"/>
<path d="M378.124 118.771H373.236V142.992H378.124V118.771Z" fill="#342939"/>
<path d="M397.678 139.911V154.147C397.678 156.59 395.765 158.502 393.321 158.502H386.307C379.081 158.502 373.236 152.659 373.236 145.436V139.911H378.124V142.461C378.124 143.842 379.293 145.011 380.675 145.011H384.926C386.307 145.011 387.476 143.842 387.476 142.461C387.476 141.08 388.645 139.911 390.026 139.911H397.89H397.678Z" fill="#342939"/>
<path d="M392.046 105.704H386.732C381.844 105.704 378.018 109.635 378.124 114.522V118.877L348.369 125.464L349.325 102.411C349.325 102.411 375.786 85.3073 392.046 105.598V105.704Z" fill="#342939"/>
<path d="M369.729 211.613H451.025C452.407 211.613 453.47 212.675 453.47 214.056C453.47 215.437 452.407 216.5 451.025 216.5H369.729C368.348 216.5 367.285 215.437 367.285 214.056C367.285 212.675 368.348 211.613 369.729 211.613Z" fill="white"/>
<path d="M501.185 133H428.815C425.939 133 423.608 135.331 423.608 138.205V211.294C423.608 214.169 425.939 216.5 428.815 216.5H501.185C504.061 216.5 506.392 214.169 506.392 211.294V138.205C506.392 135.331 504.061 133 501.185 133Z" fill="#ED7C22"/>
<path d="M139.957 184.008C143.252 184.008 145.909 186.664 145.909 189.957V184.008H138.363H139.957Z" fill="#F77F57"/>
<path d="M198.087 336.559H116.897L116.897 211.416C116.897 201.643 124.867 193.781 134.538 193.781H180.446C190.223 193.781 198.087 201.749 198.087 211.416L198.087 336.559Z" fill="#323459"/>
<path d="M138.257 184.22H144.314C159.086 184.22 171.094 172.216 171.094 157.449V156.175C171.094 145.87 162.699 137.371 152.285 137.371H148.99C138.682 137.371 130.181 145.764 130.181 156.175V176.359C130.181 180.715 133.687 184.22 138.045 184.22H138.257Z" fill="#F77F57"/>
<path d="M135.069 153.412C149.628 153.412 158.555 152.669 155.26 173.597C166.419 173.597 175.452 164.567 175.452 153.412C175.452 142.258 166.419 133.228 155.26 133.228H139.001C130.606 135.671 134.963 144.276 134.963 153.412H135.069Z" fill="#323459"/>
<path d="M149.947 154.262C151.647 151.5 150.691 147.782 147.928 146.189L135.069 138.54C132.306 136.84 128.587 137.796 126.992 140.558C125.292 143.32 126.249 147.038 129.012 148.632L141.87 156.281C144.633 157.98 148.353 157.024 149.947 154.262Z" fill="#323459"/>
<path d="M151.328 147.463C153.454 144.914 153.135 141.196 150.584 139.071L139.107 129.404C136.557 127.279 132.837 127.598 130.712 130.147C128.587 132.697 128.905 136.415 131.456 138.54L142.933 148.207C145.483 150.332 149.203 150.013 151.328 147.463Z" fill="#323459"/>
<path d="M164.612 147.463C166.737 144.914 166.419 141.196 163.868 139.071L152.391 129.404C149.84 127.279 146.121 127.598 143.996 130.147C141.87 132.697 142.189 136.415 144.74 138.54L156.217 148.207C158.767 150.332 162.487 150.013 164.612 147.463Z" fill="#323459"/>
<path d="M175.133 173.597C177.258 171.047 176.939 167.329 174.389 165.204L162.912 155.537C160.361 153.412 156.642 153.731 154.516 156.281C152.391 158.83 152.71 162.549 155.26 164.673L166.737 174.34C169.288 176.465 173.007 176.146 175.133 173.597Z" fill="#323459"/>
<path d="M172.901 184.008C175.026 181.458 174.708 177.74 172.157 175.615L160.68 165.948C158.13 163.823 154.41 164.142 152.285 166.692C150.159 169.241 150.478 172.959 153.029 175.084L164.506 184.751C167.056 186.876 170.776 186.557 172.901 184.008Z" fill="#323459"/>
<path d="M145.909 202.811L164.718 194.313V174.978H145.909V202.811Z" fill="#F77F57"/>
<path d="M127.843 172.747H130.287V164.673L126.674 170.729C126.142 171.685 126.674 172.853 127.843 172.853V172.747Z" fill="#F77F57"/>
<path d="M164.718 181.14C176.195 164.673 175.452 151.925 175.452 151.925L163.018 146.507C154.516 146.507 147.715 148.844 147.715 157.343L150.159 157.662C147.715 183.477 164.612 181.14 164.612 181.14H164.718Z" fill="#323459"/>
<path d="M150.266 172.959H154.835C157.386 172.959 159.405 170.941 159.405 168.391V164.779C159.405 162.23 157.386 160.211 154.835 160.211C152.285 160.211 150.266 162.23 150.266 164.779V172.959Z" fill="#F77F57"/>
<path d="M146.334 175.297H150.372V155.112H146.334V175.297Z" fill="#323459"/>
<path d="M130.287 158.512H144.633C147.715 158.512 150.159 156.068 150.159 152.988C150.159 149.907 147.715 147.463 144.633 147.463H135.919C132.837 147.463 130.287 150.013 130.287 153.094V158.618V158.512Z" fill="#F77F57"/>
<path d="M152.072 159.362H145.377C141.87 159.362 139.107 156.493 139.107 153.094V146.507H152.072V159.362Z" fill="#323459"/>
<path d="M129.862 172.747V184.645C129.862 186.664 131.456 188.257 133.475 188.257H139.32C145.377 188.257 150.266 183.37 150.266 177.315V172.641H146.227V174.766C146.227 175.934 145.271 176.89 144.102 176.89H140.489C139.32 176.89 138.363 175.934 138.363 174.766C138.363 173.597 137.407 172.641 136.238 172.641H129.755L129.862 172.747Z" fill="#323459"/>
<path d="M160.042 199.305C160.042 198.88 160.786 201.855 161.636 206.423C162.487 210.991 163.23 217.365 163.337 223.633C163.549 229.901 163.018 236.062 162.274 240.524C162.062 241.586 161.849 242.649 161.636 243.499C161.636 243.924 161.424 244.349 161.318 244.773C161.211 245.092 161.105 245.517 160.999 245.73C160.574 247.004 160.361 247.642 160.361 247.642L183.422 260.284C183.422 260.284 183.847 259.54 184.484 258.159C184.803 257.522 185.228 256.672 185.653 255.716C186.079 254.759 186.504 253.803 186.929 252.635C188.948 248.067 190.648 242.011 192.03 236.062C193.411 230.113 194.049 224.27 194.474 219.809C194.899 215.453 194.899 212.585 194.899 212.585C195.111 208.123 193.092 204.086 189.798 201.43C186.504 198.668 181.934 197.287 177.046 197.712L159.936 199.199L160.042 199.305Z" fill="#323459"/>
<path d="M160.467 247.642C160.467 247.642 160.467 247.854 160.255 248.279C160.255 248.704 159.83 249.235 159.617 249.979C159.299 250.723 158.98 251.679 158.448 252.635C158.236 253.166 157.917 253.591 157.598 254.228C157.279 254.759 156.961 255.291 156.642 255.928C155.26 258.159 153.241 260.602 150.478 262.621C149.097 263.577 147.503 264.533 145.802 265.277C144.102 266.02 142.189 266.658 140.17 267.082C136.238 267.932 131.881 268.145 127.843 267.826C123.804 267.507 119.872 266.87 116.684 266.126C113.39 265.383 110.733 264.533 108.82 263.895C107.864 263.577 107.12 263.364 106.589 263.152C106.057 262.939 105.845 262.833 105.845 262.833C105.845 262.833 103.932 262.196 102.019 261.452C100.106 260.708 98.1933 259.859 98.1933 259.859L90.7545 271.969C90.7545 271.969 91.9234 272.713 94.0488 273.988C96.1742 275.262 99.2561 276.962 103.082 278.768C107.014 280.574 111.583 282.699 117.109 284.399C122.529 286.098 128.799 287.479 135.6 287.904C142.402 288.223 149.947 287.373 156.854 284.717C160.255 283.443 163.443 281.743 166.206 279.937C168.969 278.025 171.413 276.112 173.326 274.094C175.345 272.182 176.939 270.27 178.215 268.57C178.958 267.72 179.384 266.87 179.915 266.126C180.446 265.383 180.871 264.745 181.296 264.108C182.04 262.833 182.784 261.877 183.103 261.24C183.422 260.602 183.634 260.177 183.634 260.177L160.574 247.536L160.467 247.642Z" fill="#F77F57"/>
<path d="M136.025 197.181C136.344 196.968 134.219 198.987 130.712 201.643C127.205 204.405 122.317 207.91 117.109 210.885C111.902 213.966 106.589 216.409 102.444 217.79C100.425 218.64 98.7247 218.959 97.4495 219.384C96.1742 219.809 95.5366 219.809 95.5366 219.809L96.2805 246.155C96.2805 246.155 96.493 246.155 96.8118 246.155C97.2369 246.155 97.7683 246.155 98.4059 246.155C99.7874 246.048 101.7 245.836 104.038 245.623C108.502 244.986 114.453 243.924 119.872 242.224L121.998 241.586C122.635 241.374 123.379 241.162 124.017 240.949C125.292 240.524 126.674 240.099 127.843 239.568C130.287 238.612 132.625 237.762 134.538 236.912C136.45 236.062 138.045 235.425 139.107 234.894C140.17 234.363 140.808 234.044 140.808 234.044C144.633 232.238 147.077 228.626 147.821 224.589C148.565 220.446 147.821 215.772 145.058 211.735L135.813 197.181H136.025Z" fill="#323459"/>
<path d="M95.6429 219.809C95.6429 219.809 94.7927 220.021 93.1987 220.233C92.7736 220.233 92.3485 220.446 91.9234 220.446C91.4983 220.446 90.967 220.446 90.4356 220.552C89.9043 220.552 89.2667 220.552 88.7353 220.765C88.4165 220.765 88.0977 220.765 87.7789 220.765C87.4601 220.765 87.1413 220.765 86.7162 220.765C81.0839 220.765 73.645 220.021 67.2688 215.772C64.0807 213.647 61.3177 210.779 59.086 207.592C58.5547 206.742 58.0233 205.998 57.492 205.255C57.0669 204.405 56.5356 203.661 56.1105 202.811C55.1541 201.218 54.5164 199.624 53.7725 198.243C53.1349 196.756 52.6036 195.375 52.0722 194.206C51.6471 193.038 51.2221 191.975 50.9033 191.019C50.5844 190.169 50.2656 189.426 50.1594 189.001C49.9468 188.576 49.9468 188.257 49.9468 188.257C49.9468 188.257 49.3092 186.451 48.6716 184.645C48.034 182.839 47.5026 181.033 47.5026 181.033L33.475 183.052C33.475 183.052 33.6875 184.326 34.0064 186.451C34.1126 187.514 34.4314 188.895 34.644 190.382C34.7502 191.125 34.9628 191.975 35.0691 192.825C35.2816 193.675 35.4941 194.631 35.6004 195.587C36.3443 199.412 37.5133 204.192 39.5324 209.504C41.4452 214.816 44.3145 220.871 48.8841 226.395C50.0531 227.776 51.2221 229.157 52.4973 230.432C53.8788 231.707 55.1541 232.875 56.5356 234.044C57.9171 235.106 59.4048 236.062 60.8926 237.125C62.3804 238.081 63.8682 238.824 65.2497 239.568C65.9936 239.993 66.7375 240.312 67.3751 240.63C68.119 240.949 68.7566 241.268 69.5005 241.48C70.2444 241.799 70.882 242.011 71.6259 242.33C72.2635 242.649 73.0074 242.755 73.645 242.968C74.9202 243.392 76.1955 243.711 77.4707 244.03C78.746 244.349 79.8087 244.561 80.9776 244.773C82.1466 244.986 83.2093 245.198 84.1657 245.411C85.2284 245.517 86.2911 245.623 87.2475 245.73C89.1604 245.942 90.967 246.155 92.2422 246.048C94.899 246.048 96.493 246.048 96.493 246.048L95.7491 219.702L95.6429 219.809Z" fill="#F77F57"/>
<path d="M81.8278 277.387C80.6588 269.313 86.1849 261.877 94.2614 260.602L98.1933 260.071L100.319 274.625L81.8278 277.387Z" fill="#F77F57"/>
<path d="M24.8671 173.597C31.6684 169.135 40.8076 171.047 45.271 177.846L47.5026 181.14L35.1753 189.213L24.8671 173.597Z" fill="#F77F57"/>
<path d="M141.339 256.672H57.2795C55.8979 256.672 54.729 257.84 54.729 259.221C54.729 260.602 55.8979 261.771 57.2795 261.771H141.339C142.72 261.771 143.889 260.602 143.889 259.221C143.889 257.84 142.72 256.672 141.339 256.672Z" fill="white"/>
<path d="M80.2337 175.403H5.41976C2.42651 175.403 0 177.829 0 180.821V256.353C0 259.345 2.42651 261.771 5.41976 261.771H80.2337C83.227 261.771 85.6535 259.345 85.6535 256.353V180.821C85.6535 177.829 83.227 175.403 80.2337 175.403Z" fill="#003446"/>
</svg>
