<svg width="473" height="448" viewBox="0 0 473 448" fill="none" xmlns="http://www.w3.org/2000/svg">
<path d="M-20 0V492.554H472.5V0H-20ZM311.84 50.2319C305.175 51.7814 295.699 55.1686 288.565 62.3034C281.431 69.4382 278.08 78.9153 276.494 85.5817C276.386 86.0501 276.278 86.5185 276.17 86.9509V11.495C276.278 11.9634 276.35 12.3958 276.494 12.8642C278.044 19.5306 281.431 29.0077 288.565 36.1425C295.699 43.2773 305.175 46.6285 311.84 48.214C313.714 48.6464 315.443 48.9707 317.029 49.223C315.443 49.4752 313.714 49.7995 311.84 50.2319ZM337.674 48.25C344.34 46.7006 353.816 43.3133 360.95 36.1785C368.084 29.0437 371.435 19.5667 373.02 12.9003C373.128 12.4319 373.236 11.9634 373.344 11.531V86.987C373.236 86.5186 373.164 86.0861 373.02 85.6177C371.471 78.9513 368.084 69.4743 360.95 62.3395C353.816 55.2047 344.34 51.8535 337.674 50.268C335.801 49.8355 334.071 49.5112 332.486 49.259C334.071 49.0068 335.801 48.6825 337.674 48.25ZM274.801 86.987C274.693 86.5186 274.621 86.0861 274.477 85.6177C272.927 78.9513 269.541 69.4743 262.407 62.3395C255.272 55.2047 245.797 51.8535 239.131 50.268C237.257 49.8355 235.528 49.5112 233.943 49.259C235.528 49.0068 237.257 48.6825 239.131 48.25C245.797 46.7006 255.272 43.3133 262.407 36.1785C269.541 29.0437 272.891 19.5667 274.477 12.9003C274.585 12.4319 274.693 11.9634 274.801 11.531V86.987ZM213.369 50.2319C206.703 51.7814 197.227 55.1686 190.093 62.3034C182.959 69.4382 179.609 78.9153 178.023 85.5817C177.915 86.0501 177.807 86.5185 177.699 86.9509V11.495C177.807 11.9634 177.879 12.3958 178.023 12.8642C179.573 19.5306 182.959 29.0077 190.093 36.1425C197.227 43.2773 206.703 46.6285 213.369 48.214C215.243 48.6464 216.972 48.9707 218.557 49.223C216.972 49.4752 215.243 49.7995 213.369 50.2319ZM176.33 86.987C176.222 86.5186 176.15 86.0861 176.006 85.6177C174.456 78.9513 171.069 69.4743 163.935 62.3395C156.801 55.2047 147.325 51.8535 140.66 50.268C138.786 49.8355 137.057 49.5112 135.471 49.259C137.057 49.0068 138.786 48.6825 140.66 48.25C147.325 46.7006 156.801 43.3133 163.935 36.1785C171.069 29.0437 174.42 19.5667 176.006 12.9003C176.114 12.4319 176.222 11.9634 176.33 11.531V86.987ZM114.862 50.2319C108.196 51.7814 98.7203 55.1686 91.5863 62.3034C84.4522 69.4382 81.1014 78.9153 79.5161 85.5817C79.408 86.0501 79.2999 86.5185 79.1918 86.9509V11.495C79.2999 11.9634 79.3719 12.3958 79.5161 12.8642C81.0654 19.5306 84.4522 29.0077 91.5863 36.1425C98.7203 43.2773 108.196 46.6285 114.862 48.214C116.735 48.6464 118.465 48.9707 120.05 49.223C118.465 49.4752 116.735 49.7995 114.862 50.2319ZM77.8226 86.987C77.7145 86.5186 77.6425 86.0861 77.4984 85.6177C75.949 78.9513 72.5622 69.4743 65.4282 62.3395C58.2941 55.2047 48.8181 51.8535 42.1525 50.268C40.2789 49.8355 38.5495 49.5112 36.9641 49.259C38.5495 49.0068 40.2789 48.6825 42.1525 48.25C48.8181 46.7006 58.2941 43.3133 65.4282 36.1785C72.5622 29.0437 75.913 19.5667 77.4984 12.9003C77.6064 12.4319 77.7145 11.9634 77.8226 11.531V86.987ZM41.8282 51.6012C48.3137 53.1147 57.5375 56.3938 64.4553 63.3124C71.3732 70.231 74.6159 79.3837 76.1292 85.906C77.4263 91.4913 77.7145 96.1037 77.7866 97.8333C76.0932 97.7613 71.4813 97.5091 65.8966 96.1758C59.4111 94.6623 50.1873 91.3832 43.2694 84.4646C36.3516 77.546 33.1089 68.3933 31.5956 61.871C30.2985 56.2857 30.0102 51.6733 29.9382 49.9437C31.6316 50.0157 36.2435 50.2679 41.8282 51.6012ZM80.8492 85.906C82.3625 79.4198 85.6412 70.195 92.5591 63.2764C99.4769 56.3578 108.629 53.1147 115.15 51.6012C120.735 50.304 125.347 50.0157 127.076 49.9437C127.004 51.6373 126.752 56.2497 125.419 61.835C123.906 68.3212 120.627 77.546 113.709 84.4646C106.791 91.3832 97.6394 94.6263 91.1179 96.1397C85.5331 97.437 80.9212 97.7253 79.1918 97.7973C79.2638 96.1037 79.5161 91.4913 80.8492 85.906ZM128.481 49.9437C130.175 50.0157 134.787 50.2679 140.371 51.6012C146.857 53.1147 156.081 56.3938 162.999 63.3124C169.916 70.231 173.159 79.3837 174.672 85.906C175.97 91.4913 176.258 96.1037 176.33 97.8333C174.636 97.7613 170.025 97.5091 164.404 96.1758C152.658 93.4011 145.632 88.2842 141.813 84.5006C134.895 77.582 131.652 68.4293 130.139 61.9071C128.842 56.3217 128.553 51.7093 128.481 49.9797V49.9437ZM179.356 85.906C180.87 79.4198 184.148 70.195 191.066 63.2764C197.984 56.3578 207.136 53.1147 213.657 51.6012C219.242 50.304 223.854 50.0157 225.583 49.9437C225.511 51.6373 225.259 56.2497 223.926 61.835C222.413 68.3212 219.134 77.546 212.216 84.4646C205.298 91.3832 196.147 94.6263 189.625 96.1397C184.04 97.437 179.428 97.7253 177.699 97.7973C177.771 96.1037 178.023 91.4913 179.356 85.906ZM226.953 49.9437C228.646 50.0157 233.258 50.2679 238.843 51.6012C245.328 53.1147 254.552 56.3938 261.47 63.3124C268.388 70.231 271.63 79.3837 273.144 85.906C274.441 91.4913 274.729 96.1037 274.801 97.8333C273.108 97.7613 268.496 97.5091 262.911 96.1758C256.425 94.6623 247.202 91.3832 240.284 84.4646C233.366 77.546 230.123 68.3933 228.61 61.871C227.313 56.2857 227.025 51.6733 226.953 49.9437ZM277.864 85.906C279.377 79.4198 282.656 70.195 289.573 63.2764C296.491 56.3578 305.643 53.1147 312.165 51.6012C317.749 50.304 322.361 50.0157 324.091 49.9437C324.019 51.6373 323.766 56.2497 322.433 61.835C320.92 68.3212 317.641 77.546 310.723 84.4646C303.806 91.3832 294.654 94.6263 288.132 96.1397C282.548 97.437 277.936 97.7253 276.206 97.7973C276.278 96.1037 276.53 91.4913 277.864 85.906ZM325.46 49.9437C327.153 50.0157 331.765 50.2679 337.35 51.6012C343.835 53.1147 353.059 56.3938 359.977 63.3124C366.895 70.231 370.138 79.3837 371.651 85.906C372.948 91.4913 373.236 96.1037 373.308 97.8333C371.615 97.7613 367.003 97.5091 361.418 96.1758C354.933 94.6623 345.709 91.3832 338.791 84.4646C331.873 77.546 328.63 68.3933 327.117 61.871C325.82 56.2857 325.532 51.6733 325.46 49.9437ZM410.348 50.2319C403.682 51.7814 394.206 55.1686 387.072 62.3034C379.938 69.4382 376.587 78.9153 375.002 85.5817C374.894 86.0501 374.785 86.5185 374.677 86.9509V11.495C374.785 11.9634 374.858 12.3958 375.002 12.8642C376.551 19.5306 379.938 29.0077 387.072 36.1425C394.206 43.2773 403.682 46.6285 410.348 48.214C412.221 48.6464 413.951 48.9707 415.536 49.223C413.951 49.4752 412.221 49.7995 410.348 50.2319ZM422.562 49.9437C422.49 51.6373 422.238 56.2497 420.904 61.835C419.391 68.3212 416.112 77.546 409.195 84.4646C402.277 91.3832 393.125 94.6263 386.603 96.1397C381.019 97.437 376.407 97.7253 374.677 97.7973C374.749 96.1037 375.002 91.4913 376.335 85.906C377.848 79.4198 381.127 70.195 388.045 63.2764C394.962 56.3578 404.114 53.1147 410.636 51.6012C416.22 50.304 420.832 50.0157 422.562 49.9437ZM410.672 46.8807C404.186 45.3673 394.962 42.0881 388.045 35.1695C381.127 28.2509 377.884 19.0982 376.371 12.576C375.074 6.99064 374.785 2.37824 374.713 0.648593C376.407 0.720661 381.019 0.972926 386.603 2.3062C393.089 3.81964 402.313 7.09877 409.231 14.0174C416.148 20.936 419.391 30.0887 420.904 36.611C422.202 42.1963 422.49 46.8087 422.562 48.5383C420.868 48.4663 416.256 48.214 410.672 46.8807ZM371.651 12.576C370.138 19.0622 366.859 28.287 359.941 35.2056C353.023 42.1242 343.871 45.3673 337.35 46.8807C331.765 48.178 327.153 48.4663 325.424 48.5383C325.496 46.8447 325.748 42.2323 327.081 36.647C328.594 30.1608 331.873 20.936 338.791 14.0174C345.709 7.09877 354.861 3.85566 361.382 2.34221C366.967 1.04498 371.579 0.756731 373.308 0.684662C373.236 2.37828 372.984 6.99064 371.651 12.576ZM324.055 48.5383C322.361 48.4663 317.749 48.214 312.165 46.8807C305.679 45.3673 296.455 42.0881 289.537 35.1695C282.62 28.2509 279.377 19.0982 277.864 12.576C276.566 6.99064 276.278 2.37824 276.206 0.648593C277.9 0.720661 282.512 0.972926 288.096 2.3062C294.582 3.81964 303.806 7.09877 310.723 14.0174C317.641 20.936 320.884 30.0887 322.397 36.611C323.694 42.1963 323.983 46.8087 324.055 48.5383ZM273.144 12.576C271.63 19.0622 268.352 28.287 261.434 35.2056C254.516 42.1242 245.364 45.3673 238.843 46.8807C233.258 48.178 228.646 48.4663 226.917 48.5383C226.989 46.8447 227.241 42.2323 228.574 36.647C230.087 30.1608 233.366 20.936 240.284 14.0174C247.202 7.09877 256.353 3.85566 262.875 2.34221C268.46 1.04498 273.072 0.756731 274.801 0.684662C274.729 2.37828 274.477 6.99064 273.144 12.576ZM225.547 48.5383C223.854 48.4663 219.242 48.214 213.657 46.8807C207.172 45.3673 197.948 42.0881 191.03 35.1695C184.112 28.2509 180.87 19.0982 179.356 12.576C178.059 6.99064 177.771 2.37824 177.699 0.648593C179.392 0.720661 184.004 0.972926 189.589 2.3062C196.074 3.81964 205.298 7.09877 212.216 14.0174C219.134 20.936 222.377 30.0887 223.89 36.611C225.187 42.1963 225.475 46.8087 225.547 48.5383ZM174.636 12.576C173.123 19.0622 169.844 28.287 162.927 35.2056C156.009 42.1242 146.857 45.3673 140.335 46.8807C134.751 48.178 130.139 48.4663 128.409 48.5383C128.481 46.8447 128.734 42.2323 130.067 36.647C131.58 30.1608 134.859 20.936 141.777 14.0174C148.694 7.09877 157.846 3.85566 164.368 2.34221C169.952 1.04498 174.564 0.756731 176.294 0.684662C176.222 2.37828 175.97 6.99064 174.636 12.576ZM127.04 48.5383C125.347 48.4663 120.735 48.214 115.15 46.8807C108.665 45.3673 99.4409 42.0881 92.523 35.1695C85.6052 28.2509 82.3625 19.0982 80.8492 12.576C79.5521 6.99064 79.2638 2.37824 79.1918 0.648593C80.8852 0.720661 85.4971 0.972926 91.0818 2.3062C97.5673 3.81964 106.791 7.09877 113.709 14.0174C120.627 20.936 123.87 30.0887 125.383 36.611C126.68 42.1963 126.968 46.8087 127.04 48.5383ZM76.1652 12.576C74.6519 19.0622 71.3732 28.287 64.4553 35.2056C57.5375 42.1242 48.3858 45.3673 41.8643 46.8807C36.2795 48.178 31.6676 48.4663 29.9382 48.5383C30.0102 46.8447 30.2625 42.2323 31.5956 36.647C33.1089 30.1608 36.3876 20.936 43.3055 14.0174C50.2233 7.09877 59.375 3.85566 65.8966 2.34221C71.4813 1.04498 76.0932 0.756731 77.8226 0.684662C77.7506 2.37828 77.4984 6.99064 76.1652 12.576ZM28.533 48.5383C26.8396 48.4663 22.2277 48.214 16.643 46.8807C10.1575 45.3673 0.933681 42.0881 -5.98416 35.1695C-12.902 28.2509 -16.1447 19.0982 -17.658 12.576C-18.9551 6.99064 -19.2434 2.37824 -19.3154 0.648593C-17.622 0.720661 -13.0101 0.972926 -7.42538 2.3062C-0.939901 3.81964 8.28389 7.09877 15.2017 14.0174C22.1196 20.936 25.3623 30.0887 26.8756 36.611C28.1727 42.1963 28.4609 46.8087 28.533 48.5383ZM-19.3154 11.531C-19.2073 11.9994 -19.1353 12.4319 -18.9911 12.9003C-17.4418 19.5667 -14.055 29.0437 -6.92095 36.1785C0.213074 43.3133 9.68908 46.6645 16.3547 48.25C18.2283 48.6825 19.9577 49.0068 21.5431 49.259C19.9577 49.5112 18.2283 49.8355 16.3547 50.268C9.68908 51.8174 0.213074 55.2047 -6.92095 62.3395C-14.055 69.4743 -17.4058 78.9513 -18.9911 85.6177C-19.0992 86.0861 -19.2073 86.5546 -19.3154 86.987V11.531ZM-17.658 85.906C-16.1447 79.4198 -12.866 70.195 -5.94813 63.2764C0.969713 56.3578 10.1214 53.1147 16.643 51.6012C22.2277 50.304 26.8396 50.0157 28.569 49.9437C28.497 51.6373 28.2448 56.2497 26.9116 61.835C25.3983 68.3212 22.1196 77.546 15.2017 84.4646C8.28389 91.3832 -0.86784 94.6263 -7.38935 96.1397C-12.9741 97.437 -17.586 97.7253 -19.3154 97.7973C-19.2434 96.1037 -18.9911 91.4913 -17.658 85.906ZM-8.47026 97.7973C-8.00187 97.6892 -7.5695 97.6172 -7.1011 97.473C-0.435474 95.9236 9.04053 92.5363 16.1746 85.4015C23.3086 78.2667 26.6594 68.7896 28.2448 62.1232C28.6771 60.2495 29.0014 58.5199 29.2536 56.9343C29.5058 58.5199 29.8301 60.2495 30.2625 62.1232C31.8118 68.7896 35.1986 78.2667 42.3326 85.4015C49.4667 92.5363 58.9427 95.8875 65.6083 97.473C66.0767 97.5811 66.5451 97.6892 66.9775 97.7973H-8.47026ZM90.0369 97.7973C90.5053 97.6892 90.9377 97.6172 91.4061 97.473C98.0717 95.9236 107.548 92.5363 114.682 85.4015C121.816 78.2667 125.167 68.7896 126.752 62.1232C127.184 60.2495 127.509 58.5199 127.761 56.9343C128.013 58.5199 128.337 60.2495 128.77 62.1232C130.319 68.7896 133.706 78.2667 140.84 85.4015C147.974 92.5363 157.45 95.8875 164.116 97.473C164.584 97.5811 165.052 97.6892 165.485 97.7973H90.0369ZM188.544 97.7973C189.013 97.6892 189.445 97.6172 189.913 97.473C196.579 95.9236 206.055 92.5363 213.189 85.4015C220.323 78.2667 223.674 68.7896 225.259 62.1232C225.692 60.2495 226.016 58.5199 226.268 56.9343C226.52 58.5199 226.844 60.2495 227.277 62.1232C228.826 68.7896 232.213 78.2667 239.347 85.4015C246.481 92.5363 255.957 95.8875 262.623 97.473C263.091 97.5811 263.56 97.6892 263.992 97.7973H188.544ZM287.051 97.7973C287.52 97.6892 287.952 97.6172 288.421 97.473C295.086 95.9236 304.562 92.5363 311.696 85.4015C318.83 78.2667 322.181 68.7896 323.766 62.1232C324.199 60.2495 324.523 58.5199 324.775 56.9343C325.027 58.5199 325.352 60.2495 325.784 62.1232C327.333 68.7896 330.72 78.2667 337.854 85.4015C344.988 92.5363 354.464 95.8875 361.13 97.473C361.598 97.5811 362.067 97.6892 362.499 97.7973H287.051ZM311.84 148.75C305.175 150.299 295.699 153.687 288.565 160.821C281.431 167.956 278.08 177.433 276.494 184.1C276.386 184.568 276.278 185.037 276.17 185.469V110.013C276.278 110.481 276.35 110.914 276.494 111.382C278.044 118.049 281.431 127.526 288.565 134.66C295.699 141.795 305.175 145.147 311.84 146.732C313.714 147.164 315.443 147.489 317.029 147.741C315.443 147.993 313.714 148.318 311.84 148.75ZM337.674 146.768C344.34 145.219 353.816 141.831 360.95 134.697C368.084 127.562 371.435 118.085 373.02 111.418C373.128 110.95 373.236 110.481 373.344 110.049V185.505C373.236 185.037 373.164 184.604 373.02 184.136C371.471 177.469 368.084 167.992 360.95 160.858C353.816 153.723 344.34 150.371 337.674 148.786C335.801 148.354 334.071 148.029 332.486 147.777C334.071 147.525 335.801 147.2 337.674 146.768ZM274.801 185.505C274.693 185.037 274.621 184.604 274.477 184.136C272.927 177.469 269.541 167.992 262.407 160.858C255.272 153.723 245.797 150.371 239.131 148.786C237.257 148.354 235.528 148.029 233.943 147.777C235.528 147.525 237.257 147.2 239.131 146.768C245.797 145.219 255.272 141.831 262.407 134.697C269.541 127.562 272.891 118.085 274.477 111.418C274.585 110.95 274.693 110.481 274.801 110.049V185.505ZM213.369 148.75C206.703 150.299 197.227 153.687 190.093 160.821C182.959 167.956 179.609 177.433 178.023 184.1C177.915 184.568 177.807 185.037 177.699 185.469V110.013C177.807 110.481 177.879 110.914 178.023 111.382C179.573 118.049 182.959 127.526 190.093 134.66C197.227 141.795 206.703 145.147 213.369 146.732C215.243 147.164 216.972 147.489 218.557 147.741C216.972 147.993 215.243 148.318 213.369 148.75ZM176.33 185.505C176.222 185.037 176.15 184.604 176.006 184.136C174.456 177.469 171.069 167.992 163.935 160.858C156.801 153.723 147.325 150.371 140.66 148.786C138.786 148.354 137.057 148.029 135.471 147.777C137.057 147.525 138.786 147.2 140.66 146.768C147.325 145.219 156.801 141.831 163.935 134.697C171.069 127.562 174.42 118.085 176.006 111.418C176.114 110.95 176.222 110.481 176.33 110.049V185.505ZM114.862 148.75C108.196 150.299 98.7203 153.687 91.5863 160.821C84.4522 167.956 81.1014 177.433 79.5161 184.1C79.408 184.568 79.2999 185.037 79.1918 185.469V110.013C79.2999 110.481 79.3719 110.914 79.5161 111.382C81.0654 118.049 84.4522 127.526 91.5863 134.66C98.7203 141.795 108.196 145.147 114.862 146.732C116.735 147.164 118.465 147.489 120.05 147.741C118.465 147.993 116.735 148.318 114.862 148.75ZM77.8226 185.505C77.7145 185.037 77.6425 184.604 77.4984 184.136C75.949 177.469 72.5622 167.992 65.4282 160.858C58.2941 153.723 48.8181 150.371 42.1525 148.786C40.2789 148.354 38.5495 148.029 36.9641 147.777C38.5495 147.525 40.2789 147.2 42.1525 146.768C48.8181 145.219 58.2941 141.831 65.4282 134.697C72.5622 127.562 75.913 118.085 77.4984 111.418C77.6064 110.95 77.7145 110.481 77.8226 110.049V185.505ZM41.8643 150.119C53.6102 152.894 60.6361 158.011 64.4553 161.794C71.3732 168.713 74.6159 177.866 76.1292 184.388C77.4263 189.973 77.7145 194.586 77.7866 196.315C76.0932 196.243 71.4813 195.991 65.8966 194.658C59.4111 193.144 50.1873 189.865 43.2694 182.947C36.3516 176.028 33.1089 166.875 31.5956 160.353C30.2985 154.768 30.0102 150.155 29.9382 148.426C31.6316 148.498 36.2435 148.75 41.8643 150.083V150.119ZM80.8492 184.424C82.3625 177.938 85.6412 168.713 92.5591 161.794C99.4769 154.876 108.629 151.633 115.15 150.119C120.735 148.822 125.347 148.534 127.076 148.462C127.004 150.155 126.752 154.768 125.419 160.353C123.906 166.839 120.627 176.064 113.709 182.983C106.791 189.901 97.6394 193.144 91.1179 194.658C85.5331 195.955 80.9212 196.243 79.1918 196.315C79.2638 194.622 79.5161 190.009 80.8492 184.424ZM140.371 150.119C152.117 152.894 159.143 158.011 162.963 161.794C169.88 168.713 173.123 177.866 174.636 184.388C175.934 189.973 176.222 194.586 176.294 196.315C174.6 196.243 169.988 195.991 164.368 194.658C152.622 191.883 145.596 186.766 141.777 182.983C134.859 176.064 131.616 166.911 130.103 160.389C128.806 154.804 128.517 150.191 128.445 148.462C130.139 148.534 134.751 148.786 140.371 150.119ZM179.356 184.424C180.87 177.938 184.148 168.713 191.066 161.794C197.984 154.876 207.136 151.633 213.657 150.119C219.242 148.822 223.854 148.534 225.583 148.462C225.511 150.155 225.259 154.768 223.926 160.353C222.413 166.839 219.134 176.064 212.216 182.983C205.298 189.901 196.147 193.144 189.625 194.658C184.04 195.955 179.428 196.243 177.699 196.315C177.771 194.622 178.023 190.009 179.356 184.424ZM226.953 148.462C228.646 148.534 233.258 148.786 238.843 150.119C245.328 151.633 254.552 154.912 261.47 161.83C268.388 168.749 271.63 177.902 273.144 184.424C274.441 190.009 274.729 194.622 274.801 196.351C273.108 196.279 268.496 196.027 262.911 194.694C256.425 193.18 247.202 189.901 240.284 182.983C233.366 176.064 230.123 166.911 228.61 160.389C227.313 154.804 227.025 150.191 226.953 148.462ZM277.864 184.424C279.377 177.938 282.656 168.713 289.573 161.794C296.491 154.876 305.643 151.633 312.165 150.119C317.749 148.822 322.361 148.534 324.091 148.462C324.019 150.155 323.766 154.768 322.433 160.353C320.92 166.839 317.641 176.064 310.723 182.983C303.806 189.901 294.654 193.144 288.132 194.658C282.548 195.955 277.936 196.243 276.206 196.315C276.278 194.622 276.53 190.009 277.864 184.424ZM337.386 150.119C349.132 152.894 356.158 158.011 359.977 161.794C366.895 168.713 370.138 177.866 371.651 184.388C372.948 189.973 373.236 194.586 373.308 196.315C371.615 196.243 367.003 195.991 361.418 194.658C354.933 193.144 345.709 189.865 338.791 182.947C331.873 176.028 328.63 166.875 327.117 160.353C325.82 154.768 325.532 150.155 325.46 148.426C327.153 148.498 331.765 148.75 337.386 150.083V150.119ZM410.348 148.75C403.682 150.299 394.206 153.687 387.072 160.821C379.938 167.956 376.587 177.433 375.002 184.1C374.894 184.568 374.785 185.037 374.677 185.469V110.013C374.785 110.481 374.858 110.914 375.002 111.382C376.551 118.049 379.938 127.526 387.072 134.66C394.206 141.795 403.682 145.147 410.348 146.732C412.221 147.164 413.951 147.489 415.536 147.741C413.951 147.993 412.221 148.318 410.348 148.75ZM422.562 148.462C422.49 150.155 422.238 154.768 420.904 160.353C419.391 166.839 416.112 176.064 409.195 182.983C402.277 189.901 393.125 193.144 386.603 194.658C381.019 195.955 376.407 196.243 374.677 196.315C374.749 194.622 375.002 190.009 376.335 184.424C377.848 177.938 381.127 168.713 388.045 161.794C394.962 154.876 404.114 151.633 410.636 150.119C416.22 148.822 420.832 148.534 422.562 148.462ZM410.672 145.399C404.186 143.885 394.962 140.606 388.045 133.688C381.127 126.769 377.884 117.616 376.371 111.094C375.074 105.509 374.785 100.896 374.713 99.1666C376.407 99.2387 381.019 99.4909 386.639 100.824C398.385 103.599 405.411 108.716 409.231 112.499C416.148 119.418 419.391 128.571 420.904 135.093C422.202 140.678 422.49 145.291 422.562 147.02C420.868 146.948 416.256 146.696 410.672 145.363V145.399ZM371.651 111.13C368.876 122.877 363.76 129.904 359.977 133.724C353.059 140.642 343.907 143.885 337.386 145.399C331.801 146.696 327.189 146.984 325.46 147.056C325.532 145.363 325.784 140.75 327.117 135.165C328.63 128.679 331.909 119.454 338.827 112.535C345.745 105.617 354.897 102.374 361.418 100.86C367.003 99.563 371.615 99.2747 373.344 99.2027C373.272 100.896 373.02 105.509 371.687 111.13H371.651ZM324.055 147.056C322.361 146.984 317.749 146.732 312.165 145.399C305.679 143.885 296.455 140.606 289.537 133.688C282.62 126.769 279.377 117.616 277.864 111.094C276.566 105.509 276.278 100.896 276.206 99.1666C277.9 99.2387 282.512 99.4909 288.096 100.824C294.582 102.338 303.806 105.617 310.723 112.535C317.641 119.454 320.884 128.607 322.397 135.129C323.694 140.714 323.983 145.327 324.055 147.056ZM273.144 111.094C271.63 117.58 268.352 126.805 261.434 133.724C254.516 140.642 245.364 143.885 238.843 145.399C233.258 146.696 228.646 146.984 226.917 147.056C226.989 145.363 227.241 140.75 228.574 135.165C230.087 128.679 233.366 119.454 240.284 112.535C247.202 105.617 256.353 102.374 262.875 100.86C268.46 99.563 273.072 99.2747 274.801 99.2027C274.729 100.896 274.477 105.509 273.144 111.094ZM225.547 147.056C223.854 146.984 219.242 146.732 213.657 145.399C207.172 143.885 197.948 140.606 191.03 133.688C184.112 126.769 180.87 117.616 179.356 111.094C178.059 105.509 177.771 100.896 177.699 99.1666C179.392 99.2387 184.004 99.4909 189.589 100.824C196.074 102.338 205.298 105.617 212.216 112.535C219.134 119.454 222.377 128.607 223.89 135.129C225.187 140.714 225.475 145.327 225.547 147.056ZM174.636 111.13C171.862 122.877 166.746 129.904 162.963 133.724C156.045 140.642 146.893 143.885 140.371 145.399C134.787 146.696 130.175 146.984 128.445 147.056C128.517 145.363 128.77 140.75 130.103 135.165C131.616 128.679 134.895 119.454 141.813 112.535C148.731 105.617 157.882 102.374 164.404 100.86C169.988 99.563 174.6 99.2747 176.33 99.2027C176.258 100.896 176.006 105.509 174.672 111.13H174.636ZM127.04 147.056C125.347 146.984 120.735 146.732 115.15 145.399C108.665 143.885 99.4409 140.606 92.523 133.688C85.6052 126.769 82.3625 117.616 80.8492 111.094C79.5521 105.509 79.2638 100.896 79.1918 99.1666C80.8852 99.2387 85.4971 99.4909 91.1179 100.824C102.864 103.599 109.89 108.716 113.709 112.499C120.627 119.418 123.87 128.571 125.383 135.093C126.68 140.678 126.968 145.291 127.04 147.02V147.056ZM76.1292 111.13C73.3549 122.877 68.2385 129.904 64.4553 133.724C57.5375 140.642 48.3858 143.885 41.8643 145.399C36.2795 146.696 31.6676 146.984 29.9382 147.056C30.0102 145.363 30.2625 140.75 31.5956 135.165C33.1089 128.679 36.3876 119.454 43.3055 112.535C50.2233 105.617 59.375 102.374 65.8966 100.86C71.4813 99.563 76.0932 99.2747 77.8226 99.2027C77.7506 100.896 77.4984 105.509 76.1652 111.13H76.1292ZM28.533 147.056C26.8396 146.984 22.2277 146.732 16.643 145.399C10.1575 143.885 0.933681 140.606 -5.98416 133.688C-12.902 126.769 -16.1447 117.616 -17.658 111.094C-18.9551 105.509 -19.2434 100.896 -19.3154 99.1666C-17.622 99.2387 -13.0101 99.4909 -7.42538 100.824C-0.939901 102.338 8.28389 105.617 15.2017 112.535C22.1196 119.454 25.3623 128.607 26.8756 135.129C28.1727 140.714 28.4609 145.327 28.533 147.056ZM-19.3154 110.013C-19.2073 110.481 -19.1353 110.914 -18.9911 111.382C-17.4418 118.049 -14.055 127.526 -6.92095 134.66C0.213074 141.795 9.68908 145.147 16.3547 146.732C18.2283 147.164 19.9577 147.489 21.5431 147.741C19.9577 147.993 18.2283 148.318 16.3547 148.75C9.68908 150.299 0.213074 153.687 -6.92095 160.821C-14.055 167.956 -17.4058 177.433 -18.9911 184.1C-19.0992 184.568 -19.2073 185.037 -19.3154 185.469V110.013ZM-17.658 184.424C-16.1447 177.938 -12.866 168.713 -5.94813 161.794C0.969713 154.876 10.1214 151.633 16.643 150.119C22.2277 148.822 26.8396 148.534 28.569 148.462C28.497 150.155 28.2448 154.768 26.9116 160.353C25.3983 166.839 22.1196 176.064 15.2017 182.983C8.28389 189.901 -0.86784 193.144 -7.38935 194.658C-12.9741 195.955 -17.586 196.243 -19.3154 196.315C-19.2434 194.622 -18.9911 190.009 -17.658 184.424ZM-8.47026 196.315C-8.00187 196.207 -7.5695 196.135 -7.1011 195.991C-0.435474 194.442 9.04053 191.054 16.1746 183.919C23.3086 176.785 26.6594 167.308 28.2448 160.641C28.6771 158.768 29.0014 157.038 29.2536 155.452C29.5058 157.038 29.8301 158.768 30.2625 160.641C31.8118 167.308 35.1986 176.785 42.3326 183.919C49.4667 191.054 58.9427 194.406 65.6083 195.991C66.0767 196.099 66.5451 196.207 66.9775 196.315H-8.47026ZM90.0369 196.315C90.5053 196.207 90.9377 196.135 91.4061 195.991C98.0717 194.442 107.548 191.054 114.682 183.919C121.816 176.785 125.167 167.308 126.752 160.641C127.184 158.768 127.509 157.038 127.761 155.452C128.013 157.038 128.337 158.768 128.77 160.641C130.319 167.308 133.706 176.785 140.84 183.919C147.974 191.054 157.45 194.406 164.116 195.991C164.584 196.099 165.052 196.207 165.485 196.315H90.0369ZM188.544 196.315C189.013 196.207 189.445 196.135 189.913 195.991C196.579 194.442 206.055 191.054 213.189 183.919C220.323 176.785 223.674 167.308 225.259 160.641C225.692 158.768 226.016 157.038 226.268 155.452C226.52 157.038 226.844 158.768 227.277 160.641C228.826 167.308 232.213 176.785 239.347 183.919C246.481 191.054 255.957 194.406 262.623 195.991C263.091 196.099 263.56 196.207 263.992 196.315H188.544ZM287.051 196.315C287.52 196.207 287.952 196.135 288.421 195.991C295.086 194.442 304.562 191.054 311.696 183.919C318.83 176.785 322.181 167.308 323.766 160.641C324.199 158.768 324.523 157.038 324.775 155.452C325.027 157.038 325.352 158.768 325.784 160.641C327.333 167.308 330.72 176.785 337.854 183.919C344.988 191.054 354.464 194.406 361.13 195.991C361.598 196.099 362.067 196.207 362.499 196.315H287.051ZM311.84 247.268C305.175 248.817 295.699 252.205 288.565 259.34C281.431 266.474 278.08 275.951 276.494 282.618C276.386 283.086 276.278 283.555 276.17 283.987V208.531C276.278 208.999 276.35 209.432 276.494 209.9C278.044 216.567 281.431 226.044 288.565 233.178C295.699 240.313 305.175 243.665 311.84 245.25C313.714 245.682 315.443 246.007 317.029 246.259C315.443 246.511 313.714 246.836 311.84 247.268ZM337.674 245.286C344.34 243.737 353.816 240.349 360.95 233.215C368.084 226.08 371.435 216.603 373.02 209.936C373.128 209.468 373.236 208.999 373.344 208.567V284.023C373.236 283.555 373.164 283.122 373.02 282.654C371.471 275.987 368.084 266.51 360.95 259.376C353.816 252.241 344.34 248.889 337.674 247.304C335.801 246.872 334.071 246.547 332.486 246.295C334.071 246.043 335.801 245.718 337.674 245.286ZM274.801 284.023C274.693 283.555 274.621 283.122 274.477 282.654C272.927 275.987 269.541 266.51 262.407 259.376C255.272 252.241 245.797 248.889 239.131 247.304C237.257 246.872 235.528 246.547 233.943 246.295C235.528 246.043 237.257 245.718 239.131 245.286C245.797 243.737 255.272 240.349 262.407 233.215C269.541 226.08 272.891 216.603 274.477 209.936C274.585 209.468 274.693 208.999 274.801 208.567V284.023ZM213.369 247.268C206.703 248.817 197.227 252.205 190.093 259.34C182.959 266.474 179.609 275.951 178.023 282.618C177.915 283.086 177.807 283.555 177.699 283.987V208.531C177.807 208.999 177.879 209.432 178.023 209.9C179.573 216.567 182.959 226.044 190.093 233.178C197.227 240.313 206.703 243.665 213.369 245.25C215.243 245.682 216.972 246.007 218.557 246.259C216.972 246.511 215.243 246.836 213.369 247.268ZM176.33 284.023C176.222 283.555 176.15 283.122 176.006 282.654C174.456 275.987 171.069 266.51 163.935 259.376C156.801 252.241 147.325 248.889 140.66 247.304C138.786 246.872 137.057 246.547 135.471 246.295C137.057 246.043 138.786 245.718 140.66 245.286C147.325 243.737 156.801 240.349 163.935 233.215C171.069 226.08 174.42 216.603 176.006 209.936C176.114 209.468 176.222 208.999 176.33 208.567V284.023ZM114.862 247.268C108.196 248.817 98.7203 252.205 91.5863 259.34C84.4522 266.474 81.1014 275.951 79.5161 282.618C79.408 283.086 79.2999 283.555 79.1918 283.987V208.531C79.2999 208.999 79.3719 209.432 79.5161 209.9C81.0654 216.567 84.4522 226.044 91.5863 233.178C98.7203 240.313 108.196 243.665 114.862 245.25C116.735 245.682 118.465 246.007 120.05 246.259C118.465 246.511 116.735 246.836 114.862 247.268ZM77.8226 284.023C77.7145 283.555 77.6425 283.122 77.4984 282.654C75.949 275.987 72.5622 266.51 65.4282 259.376C58.2941 252.241 48.8181 248.889 42.1525 247.304C40.2789 246.872 38.5495 246.547 36.9641 246.295C38.5495 246.043 40.2789 245.718 42.1525 245.286C48.8181 243.737 58.2941 240.349 65.4282 233.215C72.5622 226.08 75.913 216.603 77.4984 209.936C77.6064 209.468 77.7145 208.999 77.8226 208.567V284.023ZM41.8282 248.637C48.3137 250.151 57.5375 253.43 64.4553 260.348C71.3732 267.267 74.6159 276.42 76.1292 282.942C77.4263 288.527 77.7145 293.14 77.7866 294.869C76.0932 294.797 71.4813 294.545 65.8966 293.212C59.4111 291.698 50.1873 288.419 43.2694 281.501C36.3516 274.582 33.1089 265.429 31.5956 258.907C30.2985 253.322 30.0102 248.709 29.9382 246.98C31.6316 247.052 36.2435 247.304 41.8282 248.637ZM80.8492 282.942C82.3625 276.456 85.6412 267.231 92.5591 260.312C99.4769 253.394 108.629 250.151 115.15 248.637C120.735 247.34 125.347 247.052 127.076 246.98C127.004 248.673 126.752 253.286 125.419 258.907C122.644 270.654 117.528 277.681 113.745 281.501C106.827 288.419 97.6754 291.662 91.1539 293.176C85.5692 294.473 80.9573 294.761 79.2278 294.833C79.2999 293.14 79.5521 288.527 80.8852 282.942H80.8492ZM128.481 246.98C130.175 247.052 134.787 247.304 140.371 248.637C146.857 250.151 156.081 253.43 162.999 260.348C169.916 267.267 173.159 276.42 174.672 282.942C175.97 288.527 176.258 293.14 176.33 294.869C174.636 294.797 170.025 294.545 164.404 293.212C152.658 290.437 145.632 285.32 141.813 281.537C134.895 274.618 131.652 265.465 130.139 258.943C128.842 253.358 128.553 248.745 128.481 247.016V246.98ZM179.356 282.942C180.87 276.456 184.148 267.231 191.066 260.312C197.984 253.394 207.136 250.151 213.657 248.637C219.242 247.34 223.854 247.052 225.583 246.98C225.511 248.673 225.259 253.286 223.926 258.907C221.152 270.654 216.035 277.681 212.252 281.501C205.334 288.419 196.183 291.662 189.661 293.176C184.076 294.473 179.464 294.761 177.735 294.833C177.807 293.14 178.059 288.527 179.392 282.942H179.356ZM238.879 248.637C250.625 251.412 257.651 256.529 261.47 260.312C268.388 267.231 271.63 276.384 273.144 282.906C274.441 288.491 274.729 293.104 274.801 294.833C273.108 294.761 268.496 294.509 262.911 293.176C256.425 291.662 247.202 288.383 240.284 281.465C233.366 274.546 230.123 265.393 228.61 258.871C227.313 253.286 227.025 248.673 226.953 246.944C228.646 247.016 233.258 247.268 238.879 248.601V248.637ZM277.864 282.942C279.377 276.456 282.656 267.231 289.573 260.312C296.491 253.394 305.643 250.151 312.165 248.637C317.749 247.34 322.361 247.052 324.091 246.98C324.019 248.673 323.766 253.286 322.433 258.907C319.659 270.654 314.543 277.681 310.759 281.501C303.842 288.419 294.69 291.662 288.168 293.176C282.584 294.473 277.972 294.761 276.242 294.833C276.314 293.14 276.566 288.527 277.9 282.942H277.864ZM325.46 246.98C327.153 247.052 331.765 247.304 337.35 248.637C343.835 250.151 353.059 253.43 359.977 260.348C366.895 267.267 370.138 276.42 371.651 282.942C372.948 288.527 373.236 293.14 373.308 294.869C371.615 294.797 367.003 294.545 361.418 293.212C354.933 291.698 345.709 288.419 338.791 281.501C331.873 274.582 328.63 265.429 327.117 258.907C325.82 253.322 325.532 248.709 325.46 246.98ZM410.348 247.268C403.682 248.817 394.206 252.205 387.072 259.34C379.938 266.474 376.587 275.951 375.002 282.618C374.894 283.086 374.785 283.555 374.677 283.987V208.531C374.785 208.999 374.858 209.432 375.002 209.9C376.551 216.567 379.938 226.044 387.072 233.178C394.206 240.313 403.682 243.665 410.348 245.25C412.221 245.682 413.951 246.007 415.536 246.259C413.951 246.511 412.221 246.836 410.348 247.268ZM422.562 246.98C422.49 248.673 422.238 253.286 420.904 258.907C418.13 270.654 413.014 277.681 409.231 281.501C402.313 288.419 393.161 291.662 386.639 293.176C381.055 294.473 376.443 294.761 374.713 294.833C374.785 293.14 375.038 288.527 376.371 282.942C377.884 276.456 381.163 267.231 388.081 260.312C394.999 253.394 404.15 250.151 410.672 248.637C416.256 247.34 420.868 247.052 422.598 246.98H422.562ZM410.672 243.917C404.186 242.403 394.962 239.124 388.045 232.206C381.127 225.287 377.884 216.134 376.371 209.612C375.074 204.027 374.785 199.414 374.713 197.685C376.407 197.757 381.019 198.009 386.603 199.342C393.089 200.856 402.313 204.135 409.231 211.053C416.148 217.972 419.391 227.125 420.904 233.647C422.202 239.232 422.49 243.845 422.562 245.574C420.868 245.502 416.256 245.25 410.672 243.917ZM371.651 209.612C370.138 216.098 366.859 225.323 359.941 232.242C353.023 239.16 343.871 242.403 337.35 243.917C331.765 245.214 327.153 245.502 325.424 245.574C325.496 243.881 325.748 239.268 327.081 233.683C328.594 227.197 331.873 217.972 338.791 211.053C345.709 204.135 354.861 200.892 361.382 199.378C366.967 198.081 371.579 197.793 373.308 197.721C373.236 199.414 372.984 204.027 371.651 209.612ZM324.055 245.574C322.361 245.502 317.749 245.25 312.165 243.917C305.679 242.403 296.455 239.124 289.537 232.206C282.62 225.287 279.377 216.134 277.864 209.612C276.566 204.027 276.278 199.414 276.206 197.685C277.9 197.757 282.512 198.009 288.096 199.342C294.582 200.856 303.806 204.135 310.723 211.053C317.641 217.972 320.884 227.125 322.397 233.647C323.694 239.232 323.983 243.845 324.055 245.574ZM273.144 209.612C271.63 216.098 268.352 225.323 261.434 232.242C254.516 239.16 245.364 242.403 238.843 243.917C233.258 245.214 228.646 245.502 226.917 245.574C226.989 243.881 227.241 239.268 228.574 233.683C230.087 227.197 233.366 217.972 240.284 211.053C247.202 204.135 256.353 200.892 262.875 199.378C268.46 198.081 273.072 197.793 274.801 197.721C274.729 199.414 274.477 204.027 273.144 209.612ZM225.547 245.574C223.854 245.502 219.242 245.25 213.657 243.917C207.172 242.403 197.948 239.124 191.03 232.206C184.112 225.287 180.87 216.134 179.356 209.612C178.059 204.027 177.771 199.414 177.699 197.685C179.392 197.757 184.004 198.009 189.589 199.342C196.074 200.856 205.298 204.135 212.216 211.053C219.134 217.972 222.377 227.125 223.89 233.647C225.187 239.232 225.475 243.845 225.547 245.574ZM174.636 209.612C173.123 216.098 169.844 225.323 162.927 232.242C156.009 239.16 146.857 242.403 140.335 243.917C134.751 245.214 130.139 245.502 128.409 245.574C128.481 243.881 128.734 239.268 130.067 233.683C131.58 227.197 134.859 217.972 141.777 211.053C148.694 204.135 157.846 200.892 164.368 199.378C169.952 198.081 174.564 197.793 176.294 197.721C176.222 199.414 175.97 204.027 174.636 209.612ZM127.04 245.574C125.347 245.502 120.735 245.25 115.15 243.917C108.665 242.403 99.4409 239.124 92.523 232.206C85.6052 225.287 82.3625 216.134 80.8492 209.612C79.5521 204.027 79.2638 199.414 79.1918 197.685C80.8852 197.757 85.4971 198.009 91.0818 199.342C97.5673 200.856 106.791 204.135 113.709 211.053C120.627 217.972 123.87 227.125 125.383 233.647C126.68 239.232 126.968 243.845 127.04 245.574ZM76.1652 209.612C74.6519 216.098 71.3732 225.323 64.4553 232.242C57.5375 239.16 48.3858 242.403 41.8643 243.917C36.2795 245.214 31.6676 245.502 29.9382 245.574C30.0102 243.881 30.2625 239.268 31.5956 233.683C33.1089 227.197 36.3876 217.972 43.3055 211.053C50.2233 204.135 59.375 200.892 65.8966 199.378C71.4813 198.081 76.0932 197.793 77.8226 197.721C77.7506 199.414 77.4984 204.027 76.1652 209.612ZM28.533 245.574C26.8396 245.502 22.2277 245.25 16.643 243.917C10.1575 242.403 0.933681 239.124 -5.98416 232.206C-12.902 225.287 -16.1447 216.134 -17.658 209.612C-18.9551 204.027 -19.2434 199.414 -19.3154 197.685C-17.622 197.757 -13.0101 198.009 -7.42538 199.342C-0.939901 200.856 8.28389 204.135 15.2017 211.053C22.1196 217.972 25.3623 227.125 26.8756 233.647C28.1727 239.232 28.4609 243.845 28.533 245.574ZM-19.3154 208.531C-19.2073 208.999 -19.1353 209.432 -18.9911 209.9C-17.4418 216.567 -14.055 226.044 -6.92095 233.178C0.213074 240.313 9.68908 243.665 16.3547 245.25C18.2283 245.682 19.9577 246.007 21.5431 246.259C19.9577 246.511 18.2283 246.836 16.3547 247.268C9.68908 248.817 0.213074 252.205 -6.92095 259.34C-14.055 266.474 -17.4058 275.951 -18.9911 282.618C-19.0992 283.086 -19.2073 283.555 -19.3154 283.987V208.531ZM-17.658 282.942C-16.1447 276.456 -12.866 267.231 -5.94813 260.312C0.969713 253.394 10.1214 250.151 16.643 248.637C22.2277 247.34 26.8396 247.052 28.569 246.98C28.497 248.673 28.2448 253.286 26.9116 258.907C24.1373 270.654 19.021 277.681 15.2378 281.501C8.31992 288.419 -0.83181 291.662 -7.35332 293.176C-12.938 294.473 -17.5499 294.761 -19.2794 294.833C-19.2073 293.14 -18.9551 288.527 -17.622 282.942H-17.658ZM-8.47026 294.833C-8.00187 294.725 -7.5695 294.653 -7.1011 294.509C-0.435474 292.96 9.04053 289.572 16.1746 282.438C23.3086 275.303 26.6594 265.826 28.2448 259.159C28.6771 257.286 29.0014 255.556 29.2536 253.97C29.5058 255.556 29.8301 257.286 30.2625 259.159C31.8118 265.826 35.1986 275.303 42.3326 282.438C49.4667 289.572 58.9427 292.924 65.6083 294.509C66.0767 294.617 66.5451 294.725 66.9775 294.833H-8.47026ZM90.0369 294.833C90.5053 294.725 90.9377 294.653 91.4061 294.509C98.0717 292.96 107.548 289.572 114.682 282.438C121.816 275.303 125.167 265.826 126.752 259.159C127.184 257.286 127.509 255.556 127.761 253.97C128.013 255.556 128.337 257.286 128.77 259.159C130.319 265.826 133.706 275.303 140.84 282.438C147.974 289.572 157.45 292.924 164.116 294.509C164.584 294.617 165.052 294.725 165.485 294.833H90.0369ZM188.544 294.833C189.013 294.725 189.445 294.653 189.913 294.509C196.579 292.96 206.055 289.572 213.189 282.438C220.323 275.303 223.674 265.826 225.259 259.159C225.692 257.286 226.016 255.556 226.268 253.97C226.52 255.556 226.844 257.286 227.277 259.159C228.826 265.826 232.213 275.303 239.347 282.438C246.481 289.572 255.957 292.924 262.623 294.509C263.091 294.617 263.56 294.725 263.992 294.833H188.544ZM287.051 294.833C287.52 294.725 287.952 294.653 288.421 294.509C295.086 292.96 304.562 289.572 311.696 282.438C318.83 275.303 322.181 265.826 323.766 259.159C324.199 257.286 324.523 255.556 324.775 253.97C325.027 255.556 325.352 257.286 325.784 259.159C327.333 265.826 330.72 275.303 337.854 282.438C344.988 289.572 354.464 292.924 361.13 294.509C361.598 294.617 362.067 294.725 362.499 294.833H287.051ZM311.84 345.786C305.175 347.335 295.699 350.723 288.565 357.858C281.431 364.992 278.08 374.469 276.494 381.136C276.386 381.604 276.278 382.073 276.17 382.505V307.049C276.278 307.517 276.35 307.95 276.494 308.418C278.044 315.085 281.431 324.562 288.565 331.697C295.699 338.831 305.175 342.183 311.84 343.768C313.714 344.2 315.443 344.525 317.029 344.777C315.443 345.029 313.714 345.354 311.84 345.786ZM337.674 343.804C344.34 342.255 353.816 338.867 360.95 331.733C368.084 324.598 371.435 315.121 373.02 308.454C373.128 307.986 373.236 307.517 373.344 307.085V382.541C373.236 382.073 373.164 381.64 373.02 381.172C371.471 374.505 368.084 365.028 360.95 357.894C353.816 350.759 344.34 347.408 337.674 345.822C335.801 345.39 334.071 345.065 332.486 344.813C334.071 344.561 335.801 344.237 337.674 343.804ZM274.801 382.505C274.693 382.037 274.621 381.604 274.477 381.136C272.927 374.469 269.541 364.992 262.407 357.858C255.272 350.723 245.797 347.371 239.131 345.786C237.257 345.354 235.528 345.029 233.943 344.777C235.528 344.525 237.257 344.2 239.131 343.768C245.797 342.219 255.272 338.831 262.407 331.697C269.541 324.562 272.891 315.085 274.477 308.418C274.585 307.95 274.693 307.481 274.801 307.049V382.505ZM213.369 345.786C206.703 347.335 197.227 350.723 190.093 357.858C182.959 364.992 179.609 374.469 178.023 381.136C177.915 381.604 177.807 382.073 177.699 382.505V307.049C177.807 307.517 177.879 307.95 178.023 308.418C179.573 315.085 182.959 324.562 190.093 331.697C197.227 338.831 206.703 342.183 213.369 343.768C215.243 344.2 216.972 344.525 218.557 344.777C216.972 345.029 215.243 345.354 213.369 345.786ZM176.33 382.505C176.222 382.037 176.15 381.604 176.006 381.136C174.456 374.469 171.069 364.992 163.935 357.858C156.801 350.723 147.325 347.371 140.66 345.786C138.786 345.354 137.057 345.029 135.471 344.777C137.057 344.525 138.786 344.2 140.66 343.768C147.325 342.219 156.801 338.831 163.935 331.697C171.069 324.562 174.42 315.085 176.006 308.418C176.114 307.95 176.222 307.481 176.33 307.049V382.505ZM114.862 345.786C108.196 347.335 98.7203 350.723 91.5863 357.858C84.4522 364.992 81.1014 374.469 79.5161 381.136C79.408 381.604 79.2999 382.073 79.1918 382.505V307.049C79.2999 307.517 79.3719 307.95 79.5161 308.418C81.0654 315.085 84.4522 324.562 91.5863 331.697C98.7203 338.831 108.196 342.183 114.862 343.768C116.735 344.2 118.465 344.525 120.05 344.777C118.465 345.029 116.735 345.354 114.862 345.786ZM77.8226 382.505C77.7145 382.037 77.6425 381.604 77.4984 381.136C75.949 374.469 72.5622 364.992 65.4282 357.858C58.2941 350.723 48.8181 347.371 42.1525 345.786C40.2789 345.354 38.5495 345.029 36.9641 344.777C38.5495 344.525 40.2789 344.2 42.1525 343.768C48.8181 342.219 58.2941 338.831 65.4282 331.697C72.5622 324.562 75.913 315.085 77.4984 308.418C77.6064 307.95 77.7145 307.481 77.8226 307.049V382.505ZM41.8282 347.155C48.3137 348.669 57.5375 351.948 64.4553 358.866C71.3732 365.785 74.6159 374.938 76.1292 381.46C77.4263 387.045 77.7145 391.658 77.7866 393.387C76.0932 393.315 71.4813 393.063 65.8966 391.73C59.4111 390.216 50.1873 386.937 43.2694 380.019C36.3516 373.1 33.1089 363.947 31.5956 357.425C30.2985 351.84 30.0102 347.227 29.9382 345.498C31.6316 345.57 36.2435 345.822 41.8282 347.155ZM80.8492 381.46C82.3625 374.974 85.6412 365.749 92.5591 358.83C99.4769 351.912 108.629 348.669 115.15 347.155C120.735 345.858 125.347 345.57 127.076 345.498C127.004 347.191 126.752 351.804 125.419 357.389C123.906 363.875 120.627 373.1 113.709 380.019C106.791 386.937 97.6394 390.18 91.1179 391.694C85.5331 392.991 80.9212 393.279 79.1918 393.351C79.2638 391.658 79.5161 387.045 80.8492 381.46ZM128.481 345.498C130.175 345.57 134.787 345.822 140.371 347.155C146.857 348.669 156.081 351.948 162.999 358.866C169.916 365.785 173.159 374.938 174.672 381.46C175.97 387.045 176.258 391.658 176.33 393.387C174.636 393.315 170.025 393.063 164.404 391.73C152.658 388.955 145.632 383.838 141.813 380.055C134.895 373.136 131.652 363.983 130.139 357.461C128.842 351.876 128.553 347.263 128.481 345.534V345.498ZM179.356 381.46C180.87 374.974 184.148 365.749 191.066 358.83C197.984 351.912 207.136 348.669 213.657 347.155C219.242 345.858 223.854 345.57 225.583 345.498C225.511 347.191 225.259 351.804 223.926 357.389C222.413 363.875 219.134 373.1 212.216 380.019C205.298 386.937 196.147 390.18 189.625 391.694C184.04 392.991 179.428 393.279 177.699 393.351C177.771 391.658 178.023 387.045 179.356 381.46ZM226.953 345.498C228.646 345.57 233.258 345.822 238.843 347.155C245.328 348.669 254.552 351.948 261.47 358.866C268.388 365.785 271.63 374.938 273.144 381.46C274.441 387.045 274.729 391.658 274.801 393.387C273.108 393.315 268.496 393.063 262.911 391.73C256.425 390.216 247.202 386.937 240.284 380.019C233.366 373.1 230.123 363.947 228.61 357.425C227.313 351.84 227.025 347.227 226.953 345.498ZM277.864 381.46C279.377 374.974 282.656 365.749 289.573 358.83C296.491 351.912 305.643 348.669 312.165 347.155C317.749 345.858 322.361 345.57 324.091 345.498C324.019 347.191 323.766 351.804 322.433 357.389C320.92 363.875 317.641 373.1 310.723 380.019C303.806 386.937 294.654 390.18 288.132 391.694C282.548 392.991 277.936 393.279 276.206 393.351C276.278 391.658 276.53 387.045 277.864 381.46ZM325.46 345.498C327.153 345.57 331.765 345.822 337.35 347.155C343.835 348.669 353.059 351.948 359.977 358.866C366.895 365.785 370.138 374.938 371.651 381.46C372.948 387.045 373.236 391.658 373.308 393.387C371.615 393.315 367.003 393.063 361.418 391.73C354.933 390.216 345.709 386.937 338.791 380.019C331.873 373.1 328.63 363.947 327.117 357.425C325.82 351.84 325.532 347.227 325.46 345.498ZM410.348 345.786C403.682 347.335 394.206 350.723 387.072 357.858C379.938 364.992 376.587 374.469 375.002 381.136C374.894 381.604 374.785 382.073 374.677 382.505V307.049C374.785 307.517 374.858 307.95 375.002 308.418C376.551 315.085 379.938 324.562 387.072 331.697C394.206 338.831 403.682 342.183 410.348 343.768C412.221 344.2 413.951 344.525 415.536 344.777C413.951 345.029 412.221 345.354 410.348 345.786ZM422.562 345.498C422.49 347.191 422.238 351.804 420.904 357.389C419.391 363.875 416.112 373.1 409.195 380.019C402.277 386.937 393.125 390.18 386.603 391.694C381.019 392.991 376.407 393.279 374.677 393.351C374.749 391.658 375.002 387.045 376.335 381.46C377.848 374.974 381.127 365.749 388.045 358.83C394.962 351.912 404.114 348.669 410.636 347.155C416.22 345.858 420.832 345.57 422.562 345.498ZM410.636 342.435C398.89 339.66 391.864 334.543 388.045 330.76C381.127 323.841 377.884 314.688 376.371 308.166C375.074 302.581 374.785 297.968 374.713 296.239C376.407 296.311 381.019 296.563 386.603 297.896C393.089 299.41 402.313 302.689 409.231 309.607C416.148 316.526 419.391 325.679 420.904 332.201C422.202 337.786 422.49 342.399 422.562 344.128C420.868 344.056 416.256 343.804 410.636 342.471V342.435ZM371.651 308.13C370.138 314.616 366.859 323.841 359.941 330.76C353.023 337.678 343.871 340.921 337.35 342.435C331.765 343.732 327.153 344.02 325.424 344.092C325.496 342.399 325.748 337.786 327.081 332.165C329.855 320.418 334.972 313.391 338.755 309.571C345.673 302.653 354.825 299.41 361.346 297.896C366.931 296.599 371.543 296.311 373.272 296.239C373.2 297.932 372.948 302.545 371.615 308.13H371.651ZM312.129 342.435C300.383 339.66 293.357 334.543 289.537 330.76C282.62 323.841 279.377 314.688 277.864 308.166C276.566 302.581 276.278 297.968 276.206 296.239C277.9 296.311 282.512 296.563 288.096 297.896C294.582 299.41 303.806 302.689 310.723 309.607C317.641 316.526 320.884 325.679 322.397 332.201C323.694 337.786 323.983 342.399 324.055 344.128C322.361 344.056 317.749 343.804 312.129 342.471V342.435ZM273.144 308.13C271.63 314.616 268.352 323.841 261.434 330.76C254.516 337.678 245.364 340.921 238.843 342.435C233.258 343.732 228.646 344.02 226.917 344.092C226.989 342.399 227.241 337.786 228.574 332.165C231.348 320.418 236.465 313.391 240.248 309.571C247.166 302.653 256.317 299.41 262.839 297.896C268.424 296.599 273.035 296.311 274.765 296.239C274.693 297.932 274.441 302.545 273.108 308.13H273.144ZM225.547 344.092C223.854 344.02 219.242 343.768 213.657 342.435C207.172 340.921 197.948 337.642 191.03 330.724C184.112 323.805 180.87 314.652 179.356 308.13C178.059 302.545 177.771 297.932 177.699 296.203C179.392 296.275 184.004 296.527 189.589 297.86C196.074 299.374 205.298 302.653 212.216 309.571C219.134 316.49 222.377 325.643 223.89 332.165C225.187 337.75 225.475 342.363 225.547 344.092ZM174.636 308.13C173.123 314.616 169.844 323.841 162.927 330.76C156.009 337.678 146.857 340.921 140.335 342.435C134.751 343.732 130.139 344.02 128.409 344.092C128.481 342.399 128.734 337.786 130.067 332.201C131.58 325.715 134.859 316.49 141.777 309.571C148.694 302.653 157.846 299.41 164.368 297.896C169.952 296.599 174.564 296.311 176.294 296.239C176.222 297.932 175.97 302.545 174.636 308.13ZM115.15 342.435C103.404 339.66 96.3783 334.543 92.5591 330.76C85.6412 323.841 82.3985 314.688 80.8852 308.166C79.5881 302.581 79.2999 297.968 79.2278 296.239C80.9212 296.311 85.5331 296.563 91.1179 297.896C97.6033 299.41 106.827 302.689 113.745 309.607C120.663 316.526 123.906 325.679 125.419 332.201C126.716 337.786 127.004 342.399 127.076 344.128C125.383 344.056 120.771 343.804 115.15 342.471V342.435ZM76.1652 308.13C74.6519 314.616 71.3732 323.841 64.4553 330.76C57.5375 337.678 48.3858 340.921 41.8643 342.435C36.2795 343.732 31.6676 344.02 29.9382 344.092C30.0102 342.399 30.2625 337.786 31.5956 332.165C34.3699 320.418 39.4862 313.391 43.2694 309.571C50.1873 302.653 59.339 299.41 65.8605 297.896C71.4452 296.599 76.0571 296.311 77.7866 296.239C77.7145 297.932 77.4623 302.545 76.1292 308.13H76.1652ZM28.533 344.092C26.8396 344.02 22.2277 343.768 16.643 342.435C10.1575 340.921 0.933681 337.642 -5.98416 330.724C-12.902 323.805 -16.1447 314.652 -17.658 308.13C-18.9551 302.545 -19.2434 297.932 -19.3154 296.203C-17.622 296.275 -13.0101 296.527 -7.42538 297.86C-0.939901 299.374 8.28389 302.653 15.2017 309.571C22.1196 316.49 25.3623 325.643 26.8756 332.165C28.1727 337.75 28.4609 342.363 28.533 344.092ZM-19.3154 307.049C-19.2073 307.517 -19.1353 307.95 -18.9911 308.418C-17.4418 315.085 -14.055 324.562 -6.92095 331.697C0.213074 338.831 9.68908 342.183 16.3547 343.768C18.2283 344.2 19.9577 344.525 21.5431 344.777C19.9577 345.029 18.2283 345.354 16.3547 345.786C9.68908 347.335 0.213074 350.723 -6.92095 357.858C-14.055 364.992 -17.4058 374.469 -18.9911 381.136C-19.0992 381.604 -19.2073 382.073 -19.3154 382.505V307.049ZM-17.658 381.46C-16.1447 374.974 -12.866 365.749 -5.94813 358.83C0.969713 351.912 10.1214 348.669 16.643 347.155C22.2277 345.858 26.8396 345.57 28.569 345.498C28.497 347.191 28.2448 351.804 26.9116 357.389C25.3983 363.875 22.1196 373.1 15.2017 380.019C8.28389 386.937 -0.86784 390.18 -7.38935 391.694C-12.9741 392.991 -17.586 393.279 -19.3154 393.351C-19.2434 391.658 -18.9911 387.045 -17.658 381.46ZM-8.47026 393.351C-8.00187 393.243 -7.5695 393.171 -7.1011 393.027C-0.435474 391.478 9.04053 388.09 16.1746 380.956C23.3086 373.821 26.6594 364.344 28.2448 357.677C28.6771 355.804 29.0014 354.074 29.2536 352.488C29.5058 354.074 29.8301 355.804 30.2625 357.677C31.8118 364.344 35.1986 373.821 42.3326 380.956C49.4667 388.09 58.9427 391.442 65.6083 393.027C66.0767 393.135 66.5451 393.243 66.9775 393.351H-8.47026ZM90.0369 393.351C90.5053 393.243 90.9377 393.171 91.4061 393.027C98.0717 391.478 107.548 388.09 114.682 380.956C121.816 373.821 125.167 364.344 126.752 357.677C127.184 355.804 127.509 354.074 127.761 352.488C128.013 354.074 128.337 355.804 128.77 357.677C130.319 364.344 133.706 373.821 140.84 380.956C147.974 388.09 157.45 391.442 164.116 393.027C164.584 393.135 165.052 393.243 165.485 393.351H90.0369ZM188.544 393.351C189.013 393.243 189.445 393.171 189.913 393.027C196.579 391.478 206.055 388.09 213.189 380.956C220.323 373.821 223.674 364.344 225.259 357.677C225.692 355.804 226.016 354.074 226.268 352.488C226.52 354.074 226.844 355.804 227.277 357.677C228.826 364.344 232.213 373.821 239.347 380.956C246.481 388.09 255.957 391.442 262.623 393.027C263.091 393.135 263.56 393.243 263.992 393.351H188.544ZM287.051 393.351C287.52 393.243 287.952 393.171 288.421 393.027C295.086 391.478 304.562 388.09 311.696 380.956C318.83 373.821 322.181 364.344 323.766 357.677C324.199 355.804 324.523 354.074 324.775 352.488C325.027 354.074 325.352 355.804 325.784 357.677C327.333 364.344 330.72 373.821 337.854 380.956C344.988 388.09 354.464 391.442 361.13 393.027C361.598 393.135 362.067 393.243 362.499 393.351H287.051ZM311.84 444.304C305.175 445.853 295.699 449.241 288.565 456.376C281.431 463.51 278.08 472.987 276.494 479.654C276.386 480.122 276.278 480.591 276.17 481.023V405.567C276.278 406.035 276.35 406.468 276.494 406.936C278.044 413.603 281.431 423.08 288.565 430.215C295.699 437.349 305.175 440.701 311.84 442.286C313.714 442.718 315.443 443.043 317.029 443.295C315.443 443.547 313.714 443.872 311.84 444.304ZM337.674 442.286C344.34 440.737 353.816 437.349 360.95 430.215C368.084 423.08 371.435 413.603 373.02 406.936C373.128 406.468 373.236 405.999 373.344 405.567V481.023C373.236 480.555 373.164 480.122 373.02 479.654C371.471 472.987 368.084 463.51 360.95 456.376C353.816 449.241 344.34 445.889 337.674 444.304C335.801 443.872 334.071 443.547 332.486 443.295C334.071 443.043 335.801 442.718 337.674 442.286ZM274.801 481.023C274.693 480.555 274.621 480.122 274.477 479.654C272.927 472.987 269.541 463.51 262.407 456.376C255.272 449.241 245.797 445.889 239.131 444.304C237.257 443.872 235.528 443.547 233.943 443.295C235.528 443.043 237.257 442.718 239.131 442.286C245.797 440.737 255.272 437.349 262.407 430.215C269.541 423.08 272.891 413.603 274.477 406.936C274.585 406.468 274.693 405.999 274.801 405.567V481.023ZM213.369 444.304C206.703 445.853 197.227 449.241 190.093 456.376C182.959 463.51 179.609 472.987 178.023 479.654C177.915 480.122 177.807 480.591 177.699 481.023V405.567C177.807 406.035 177.879 406.468 178.023 406.936C179.573 413.603 182.959 423.08 190.093 430.215C197.227 437.349 206.703 440.701 213.369 442.286C215.243 442.718 216.972 443.043 218.557 443.295C216.972 443.547 215.243 443.872 213.369 444.304ZM176.33 481.023C176.222 480.555 176.15 480.122 176.006 479.654C174.456 472.987 171.069 463.51 163.935 456.376C156.801 449.241 147.325 445.889 140.66 444.304C138.786 443.872 137.057 443.547 135.471 443.295C137.057 443.043 138.786 442.718 140.66 442.286C147.325 440.737 156.801 437.349 163.935 430.215C171.069 423.08 174.42 413.603 176.006 406.936C176.114 406.468 176.222 405.999 176.33 405.567V481.023ZM114.862 444.304C108.196 445.853 98.7203 449.241 91.5863 456.376C84.4522 463.51 81.1014 472.987 79.5161 479.654C79.408 480.122 79.2999 480.591 79.1918 481.023V405.567C79.2999 406.035 79.3719 406.468 79.5161 406.936C81.0654 413.603 84.4522 423.08 91.5863 430.215C98.7203 437.349 108.196 440.701 114.862 442.286C116.735 442.718 118.465 443.043 120.05 443.295C118.465 443.547 116.735 443.872 114.862 444.304ZM77.8226 481.023C77.7145 480.555 77.6425 480.122 77.4984 479.654C75.949 472.987 72.5622 463.51 65.4282 456.376C58.2941 449.241 48.8181 445.889 42.1525 444.304C40.2789 443.872 38.5495 443.547 36.9641 443.295C38.5495 443.043 40.2789 442.718 42.1525 442.286C48.8181 440.737 58.2941 437.349 65.4282 430.215C72.5622 423.08 75.913 413.603 77.4984 406.936C77.6064 406.468 77.7145 405.999 77.8226 405.567V481.023ZM41.8282 445.673C48.3137 447.187 57.5375 450.466 64.4553 457.384C71.3732 464.303 74.6159 473.456 76.1292 479.978C77.4263 485.563 77.7145 490.176 77.7866 491.905C76.0932 491.833 71.4813 491.581 65.8966 490.248C59.4111 488.734 50.1873 485.455 43.2694 478.537C36.3516 471.618 33.1089 462.465 31.5956 455.943C30.2985 450.358 30.0102 445.745 29.9382 444.016C31.6316 444.088 36.2435 444.34 41.8282 445.673ZM80.8492 479.942C83.6235 468.195 88.7398 461.168 92.523 457.348C99.4409 450.43 108.593 447.187 115.114 445.673C120.699 444.376 125.311 444.088 127.04 444.016C126.968 445.709 126.716 450.322 125.383 455.907C123.87 462.393 120.591 471.618 113.673 478.537C106.755 485.455 97.6033 488.698 91.0818 490.212C85.4971 491.509 80.8852 491.797 79.1558 491.869C79.2278 490.176 79.48 485.563 80.8131 479.942H80.8492ZM128.481 444.016C130.175 444.088 134.787 444.34 140.371 445.673C146.857 447.187 156.081 450.466 162.999 457.384C169.916 464.303 173.159 473.456 174.672 479.978C175.97 485.563 176.258 490.176 176.33 491.905C174.636 491.833 170.025 491.581 164.404 490.248C152.658 487.473 145.632 482.356 141.813 478.573C134.895 471.654 131.652 462.501 130.139 455.979C128.842 450.394 128.553 445.781 128.481 444.052V444.016ZM179.356 479.942C182.131 468.195 187.247 461.168 191.03 457.348C197.948 450.43 207.1 447.187 213.621 445.673C219.206 444.376 223.818 444.088 225.547 444.016C225.475 445.709 225.223 450.322 223.89 455.907C222.377 462.393 219.098 471.618 212.18 478.537C205.262 485.455 196.111 488.698 189.589 490.212C184.004 491.509 179.392 491.797 177.663 491.869C177.735 490.176 177.987 485.563 179.32 479.942H179.356ZM226.953 444.016C228.646 444.088 233.258 444.34 238.843 445.673C245.328 447.187 254.552 450.466 261.47 457.384C268.388 464.303 271.63 473.456 273.144 479.978C274.441 485.563 274.729 490.176 274.801 491.905C273.108 491.833 268.496 491.581 262.911 490.248C256.425 488.734 247.202 485.455 240.284 478.537C233.366 471.618 230.123 462.465 228.61 455.943C227.313 450.358 227.025 445.745 226.953 444.016ZM277.864 479.978C279.377 473.492 282.656 464.267 289.573 457.348C296.491 450.43 305.643 447.187 312.165 445.673C317.749 444.376 322.361 444.088 324.091 444.016C324.019 445.709 323.766 450.322 322.433 455.907C320.92 462.393 317.641 471.618 310.723 478.537C303.806 485.455 294.654 488.698 288.132 490.212C282.548 491.509 277.936 491.797 276.206 491.869C276.278 490.176 276.53 485.563 277.864 479.978ZM325.46 444.016C327.153 444.088 331.765 444.34 337.35 445.673C343.835 447.187 353.059 450.466 359.977 457.384C366.895 464.303 370.138 473.456 371.651 479.978C372.948 485.563 373.236 490.176 373.308 491.905C371.615 491.833 367.003 491.581 361.418 490.248C354.933 488.734 345.709 485.455 338.791 478.537C331.873 471.618 328.63 462.465 327.117 455.943C325.82 450.358 325.532 445.745 325.46 444.016ZM410.348 444.304C403.682 445.853 394.206 449.241 387.072 456.376C379.938 463.51 376.587 472.987 375.002 479.654C374.894 480.122 374.785 480.591 374.677 481.023V405.567C374.785 406.035 374.858 406.468 375.002 406.936C376.551 413.603 379.938 423.08 387.072 430.215C394.206 437.349 403.682 440.701 410.348 442.286C412.221 442.718 413.951 443.043 415.536 443.295C413.951 443.547 412.221 443.872 410.348 444.304ZM422.562 444.016C422.49 445.709 422.238 450.322 420.904 455.907C419.391 462.393 416.112 471.618 409.195 478.537C402.277 485.455 393.125 488.698 386.603 490.212C381.019 491.509 376.407 491.797 374.677 491.869C374.749 490.176 375.002 485.563 376.335 479.942C379.109 468.195 384.225 461.168 388.009 457.348C394.926 450.43 404.078 447.187 410.6 445.673C416.184 444.376 420.796 444.088 422.526 444.016H422.562ZM410.672 440.953C404.186 439.439 394.962 436.16 388.045 429.242C381.127 422.323 377.884 413.17 376.371 406.648C375.074 401.063 374.785 396.45 374.713 394.721C376.407 394.793 381.019 395.045 386.639 396.378C398.385 399.153 405.411 404.27 409.231 408.053C416.148 414.972 419.391 424.125 420.904 430.647C422.202 436.232 422.49 440.845 422.562 442.574C420.868 442.502 416.256 442.25 410.672 440.917V440.953ZM371.651 406.648C370.138 413.134 366.859 422.359 359.941 429.278C353.023 436.196 343.871 439.439 337.35 440.953C331.765 442.25 327.153 442.538 325.424 442.61C325.496 440.917 325.748 436.304 327.081 430.719C328.594 424.233 331.873 415.008 338.791 408.089C345.709 401.171 354.861 397.928 361.382 396.414C366.967 395.117 371.579 394.829 373.308 394.757C373.236 396.45 372.984 401.063 371.651 406.648ZM324.055 442.61C322.361 442.538 317.749 442.286 312.165 440.953C305.679 439.439 296.455 436.16 289.537 429.242C282.62 422.323 279.377 413.17 277.864 406.648C276.566 401.063 276.278 396.45 276.206 394.721C277.9 394.793 282.512 395.045 288.096 396.378C294.582 397.892 303.806 401.171 310.723 408.089C317.641 415.008 320.884 424.161 322.397 430.683C323.694 436.268 323.983 440.881 324.055 442.61ZM273.144 406.648C271.63 413.134 268.352 422.359 261.434 429.278C254.516 436.196 245.364 439.439 238.843 440.953C233.258 442.25 228.646 442.538 226.917 442.61C226.989 440.917 227.241 436.304 228.574 430.719C230.087 424.233 233.366 415.008 240.284 408.089C247.202 401.171 256.353 397.928 262.875 396.414C268.46 395.117 273.072 394.829 274.801 394.757C274.729 396.45 274.477 401.063 273.144 406.648ZM213.621 440.953C201.875 438.178 194.849 433.061 191.03 429.278C184.112 422.359 180.87 413.206 179.356 406.684C178.059 401.099 177.771 396.486 177.699 394.757C179.392 394.829 184.004 395.081 189.589 396.414C196.074 397.928 205.298 401.207 212.216 408.125C219.134 415.044 222.377 424.197 223.89 430.719C225.187 436.304 225.475 440.917 225.547 442.646C223.854 442.574 219.242 442.322 213.621 440.989V440.953ZM174.636 406.648C173.123 413.134 169.844 422.359 162.927 429.278C156.009 436.196 146.857 439.439 140.335 440.953C134.751 442.25 130.139 442.538 128.409 442.61C128.481 440.917 128.734 436.304 130.067 430.719C131.58 424.233 134.859 415.008 141.777 408.089C148.694 401.171 157.846 397.928 164.368 396.414C169.952 395.117 174.564 394.829 176.294 394.757C176.222 396.45 175.97 401.063 174.636 406.648ZM127.04 442.61C125.347 442.538 120.735 442.286 115.15 440.953C108.665 439.439 99.4409 436.16 92.523 429.242C85.6052 422.323 82.3625 413.17 80.8492 406.648C79.5521 401.063 79.2638 396.45 79.1918 394.721C80.8852 394.793 85.4971 395.045 91.1179 396.378C102.864 399.153 109.89 404.27 113.709 408.053C120.627 414.972 123.87 424.125 125.383 430.647C126.68 436.232 126.968 440.845 127.04 442.574V442.61ZM76.1652 406.648C74.6519 413.134 71.3732 422.359 64.4553 429.278C57.5375 436.196 48.3858 439.439 41.8643 440.953C36.2795 442.25 31.6676 442.538 29.9382 442.61C30.0102 440.917 30.2625 436.304 31.5956 430.719C33.1089 424.233 36.3876 415.008 43.3055 408.089C50.2233 401.171 59.375 397.928 65.8966 396.414C71.4813 395.117 76.0932 394.829 77.8226 394.757C77.7506 396.45 77.4984 401.063 76.1652 406.648ZM-19.3154 405.567C-19.2073 406.035 -19.1353 406.468 -18.9911 406.936C-17.4418 413.603 -14.055 423.08 -6.92095 430.215C0.213074 437.349 9.68908 440.701 16.3547 442.286C18.2283 442.718 19.9577 443.043 21.5431 443.295C19.9577 443.547 18.2283 443.872 16.3547 444.304C9.68908 445.853 0.213074 449.241 -6.92095 456.376C-14.055 463.51 -17.4058 472.987 -18.9911 479.654C-19.0992 480.122 -19.2073 480.591 -19.3154 481.023V405.567ZM-19.2794 394.757C-17.586 394.829 -12.9741 395.081 -7.38935 396.414C-0.903872 397.928 8.31992 401.207 15.2378 408.125C22.1556 415.044 25.3983 424.197 26.9116 430.719C28.2087 436.304 28.497 440.917 28.569 442.646C26.8756 442.574 22.2637 442.322 16.643 440.989C4.89703 438.214 -2.1289 433.097 -5.94813 429.314C-12.866 422.395 -16.1087 413.242 -17.622 406.72C-18.9191 401.135 -19.2073 396.522 -19.2794 394.793V394.757ZM-17.622 479.942C-14.8476 468.195 -9.73133 461.168 -5.94813 457.348C0.969713 450.43 10.1214 447.187 16.643 445.673C22.2277 444.376 26.8396 444.088 28.569 444.016C28.497 445.709 28.2448 450.322 26.9116 455.907C25.3983 462.393 22.1196 471.618 15.2017 478.537C8.28389 485.455 -0.86784 488.698 -7.38935 490.212C-12.9741 491.509 -17.586 491.797 -19.3154 491.869C-19.2434 490.176 -18.9911 485.563 -17.658 479.942H-17.622ZM-8.47026 491.869C-8.00187 491.761 -7.5695 491.689 -7.1011 491.545C-0.435474 489.996 9.04053 486.608 16.1746 479.474C23.3086 472.339 26.6594 462.862 28.2448 456.195C28.6771 454.322 29.0014 452.592 29.2536 451.006C29.5058 452.592 29.8301 454.322 30.2625 456.195C31.8118 462.862 35.1986 472.339 42.3326 479.474C49.4667 486.608 58.9427 489.96 65.6083 491.545C66.0767 491.653 66.5451 491.761 66.9775 491.869H-8.47026ZM90.0369 491.869C90.5053 491.761 90.9377 491.689 91.4061 491.545C98.0717 489.996 107.548 486.608 114.682 479.474C121.816 472.339 125.167 462.862 126.752 456.195C127.184 454.322 127.509 452.592 127.761 451.006C128.013 452.592 128.337 454.322 128.77 456.195C130.319 462.862 133.706 472.339 140.84 479.474C147.974 486.608 157.45 489.96 164.116 491.545C164.584 491.653 165.052 491.761 165.485 491.869H90.0369ZM188.544 491.869C189.013 491.761 189.445 491.689 189.913 491.545C196.579 489.996 206.055 486.608 213.189 479.474C220.323 472.339 223.674 462.862 225.259 456.195C225.692 454.322 226.016 452.592 226.268 451.006C226.52 452.592 226.844 454.322 227.277 456.195C228.826 462.862 232.213 472.339 239.347 479.474C246.481 486.608 255.957 489.96 262.623 491.545C263.091 491.653 263.56 491.761 263.992 491.869H188.544ZM287.051 491.869C287.52 491.761 287.952 491.689 288.421 491.545C295.086 489.996 304.562 486.608 311.696 479.474C318.83 472.339 322.181 462.862 323.766 456.195C324.199 454.322 324.523 452.592 324.775 451.006C325.027 452.592 325.352 454.322 325.784 456.195C327.333 462.862 330.72 472.339 337.854 479.474C344.988 486.608 354.464 489.96 361.13 491.545C361.598 491.653 362.067 491.761 362.499 491.869H287.051ZM385.523 491.869C385.991 491.761 386.423 491.689 386.892 491.545C393.557 489.996 403.033 486.608 410.167 479.474C417.301 472.339 420.652 462.862 422.238 456.195C422.67 454.322 422.994 452.592 423.246 451.006C423.499 452.592 423.823 454.322 424.255 456.195C425.805 462.862 429.191 472.339 436.325 479.474C443.459 486.608 452.935 489.96 459.601 491.545C460.069 491.653 460.538 491.761 460.97 491.869H385.523ZM459.889 490.212C448.143 487.437 441.117 482.32 437.298 478.537C430.38 471.618 427.138 462.465 425.624 455.943C424.327 450.358 424.039 445.745 423.967 444.016C425.66 444.088 430.272 444.34 435.857 445.673C442.342 447.187 451.566 450.466 458.484 457.384C465.402 464.303 468.645 473.456 470.158 479.978C471.455 485.563 471.743 490.176 471.815 491.905C470.122 491.833 465.51 491.581 459.889 490.248V490.212ZM471.815 481.023C471.707 480.555 471.635 480.122 471.491 479.654C469.942 472.987 466.555 463.51 459.421 456.376C452.287 449.241 442.811 445.889 436.145 444.304C434.272 443.872 432.542 443.547 430.957 443.295C432.542 443.043 434.272 442.718 436.145 442.286C442.811 440.737 452.287 437.349 459.421 430.215C466.555 423.08 469.906 413.603 471.491 406.936C471.599 406.468 471.707 405.999 471.815 405.567V481.023ZM470.158 406.648C468.645 413.134 465.366 422.359 458.448 429.278C451.53 436.196 442.379 439.439 435.857 440.953C430.272 442.25 425.66 442.538 423.931 442.61C424.003 440.917 424.255 436.304 425.588 430.683C428.363 418.936 433.479 411.909 437.262 408.089C444.18 401.171 453.332 397.928 459.853 396.414C465.438 395.117 470.05 394.829 471.779 394.757C471.707 396.45 471.455 401.063 470.122 406.648H470.158ZM461.006 394.757C460.538 394.865 460.105 394.937 459.637 395.081C452.971 396.631 443.496 400.018 436.361 407.153C429.227 414.287 425.877 423.764 424.291 430.431C423.859 432.305 423.535 434.034 423.282 435.62C423.03 434.034 422.706 432.305 422.274 430.431C420.724 423.764 417.337 414.287 410.203 407.153C403.069 400.018 393.593 396.667 386.928 395.081C386.459 394.973 385.991 394.865 385.559 394.757H461.006ZM362.499 394.757C362.031 394.865 361.598 394.937 361.13 395.081C354.464 396.631 344.988 400.018 337.854 407.153C330.72 414.287 327.369 423.764 325.784 430.431C325.352 432.305 325.027 434.034 324.775 435.62C324.523 434.034 324.199 432.305 323.766 430.431C322.217 423.764 318.83 414.287 311.696 407.153C304.562 400.018 295.086 396.667 288.421 395.081C287.952 394.973 287.484 394.865 287.051 394.757H362.499ZM263.992 394.757C263.523 394.865 263.091 394.937 262.623 395.081C255.957 396.631 246.481 400.018 239.347 407.153C232.213 414.287 228.862 423.764 227.277 430.431C226.844 432.305 226.52 434.034 226.268 435.62C226.016 434.034 225.692 432.305 225.259 430.431C223.71 423.764 220.323 414.287 213.189 407.153C206.055 400.018 196.579 396.667 189.913 395.081C189.445 394.973 188.977 394.865 188.544 394.757H263.992ZM165.485 394.757C165.016 394.865 164.584 394.937 164.116 395.081C157.45 396.631 147.974 400.018 140.84 407.153C133.706 414.287 130.355 423.764 128.77 430.431C128.337 432.305 128.013 434.034 127.761 435.62C127.509 434.034 127.184 432.305 126.752 430.431C125.203 423.764 121.816 414.287 114.682 407.153C107.548 400.018 98.0717 396.667 91.4061 395.081C90.9377 394.973 90.4693 394.865 90.0369 394.757H165.485ZM66.9775 394.757C66.5091 394.865 66.0767 394.937 65.6083 395.081C58.9427 396.631 49.4667 400.018 42.3326 407.153C35.1986 414.287 31.8478 423.764 30.2625 430.431C29.8301 432.305 29.5058 434.034 29.2536 435.62C29.0014 434.034 28.6771 432.305 28.2448 430.431C26.6954 423.764 23.3086 414.287 16.1746 407.153C9.04053 400.018 -0.435474 396.667 -7.1011 395.081C-7.5695 394.973 -8.0379 394.865 -8.47026 394.757H66.9775ZM385.523 393.351C385.991 393.243 386.423 393.171 386.892 393.027C393.557 391.478 403.033 388.09 410.167 380.956C417.301 373.821 420.652 364.344 422.238 357.677C422.67 355.804 422.994 354.074 423.246 352.488C423.499 354.074 423.823 355.804 424.255 357.677C425.805 364.344 429.191 373.821 436.325 380.956C443.459 388.09 452.935 391.442 459.601 393.027C460.069 393.135 460.538 393.243 460.97 393.351H385.523ZM459.925 391.694C453.44 390.18 444.216 386.901 437.298 379.983C430.38 373.064 427.138 363.911 425.624 357.389C424.327 351.804 424.039 347.191 423.967 345.462C425.66 345.534 430.272 345.786 435.857 347.119C442.342 348.633 451.566 351.912 458.484 358.83C465.402 365.749 468.645 374.902 470.158 381.424C471.455 387.009 471.743 391.622 471.815 393.351C470.122 393.279 465.51 393.027 459.925 391.694ZM471.815 382.505C471.707 382.037 471.635 381.604 471.491 381.136C469.942 374.469 466.555 364.992 459.421 357.858C452.287 350.723 442.811 347.371 436.145 345.786C434.272 345.354 432.542 345.029 430.957 344.777C432.542 344.525 434.272 344.2 436.145 343.768C442.811 342.219 452.287 338.831 459.421 331.697C466.555 324.562 469.906 315.085 471.491 308.418C471.599 307.95 471.707 307.481 471.815 307.049V382.505ZM470.158 308.13C468.645 314.616 465.366 323.841 458.448 330.76C451.53 337.678 442.379 340.921 435.857 342.435C430.272 343.732 425.66 344.02 423.931 344.092C424.003 342.399 424.255 337.786 425.588 332.165C428.363 320.418 433.479 313.391 437.262 309.571C444.18 302.653 453.332 299.41 459.853 297.896C465.438 296.599 470.05 296.311 471.779 296.239C471.707 297.932 471.455 302.545 470.122 308.13H470.158ZM461.006 296.239C460.538 296.347 460.105 296.419 459.637 296.563C452.971 298.113 443.496 301.5 436.361 308.635C429.227 315.769 425.877 325.246 424.291 331.913C423.859 333.787 423.535 335.516 423.282 337.102C423.03 335.516 422.706 333.787 422.274 331.913C420.724 325.246 417.337 315.769 410.203 308.635C403.069 301.5 393.593 298.149 386.928 296.563C386.459 296.455 385.991 296.347 385.559 296.239H461.006ZM362.499 296.239C362.031 296.347 361.598 296.419 361.13 296.563C354.464 298.113 344.988 301.5 337.854 308.635C330.72 315.769 327.369 325.246 325.784 331.913C325.352 333.787 325.027 335.516 324.775 337.102C324.523 335.516 324.199 333.787 323.766 331.913C322.217 325.246 318.83 315.769 311.696 308.635C304.562 301.5 295.086 298.149 288.421 296.563C287.952 296.455 287.484 296.347 287.051 296.239H362.499ZM263.992 296.239C263.523 296.347 263.091 296.419 262.623 296.563C255.957 298.113 246.481 301.5 239.347 308.635C232.213 315.769 228.862 325.246 227.277 331.913C226.844 333.787 226.52 335.516 226.268 337.102C226.016 335.516 225.692 333.787 225.259 331.913C223.71 325.246 220.323 315.769 213.189 308.635C206.055 301.5 196.579 298.149 189.913 296.563C189.445 296.455 188.977 296.347 188.544 296.239H263.992ZM165.485 296.239C165.016 296.347 164.584 296.419 164.116 296.563C157.45 298.113 147.974 301.5 140.84 308.635C133.706 315.769 130.355 325.246 128.77 331.913C128.337 333.787 128.013 335.516 127.761 337.102C127.509 335.516 127.184 333.787 126.752 331.913C125.203 325.246 121.816 315.769 114.682 308.635C107.548 301.5 98.0717 298.149 91.4061 296.563C90.9377 296.455 90.4693 296.347 90.0369 296.239H165.485ZM66.9775 296.239C66.5091 296.347 66.0767 296.419 65.6083 296.563C58.9427 298.113 49.4667 301.5 42.3326 308.635C35.1986 315.769 31.8478 325.246 30.2625 331.913C29.8301 333.787 29.5058 335.516 29.2536 337.102C29.0014 335.516 28.6771 333.787 28.2448 331.913C26.6954 325.246 23.3086 315.769 16.1746 308.635C9.04053 301.5 -0.435474 298.149 -7.1011 296.563C-7.5695 296.455 -8.0379 296.347 -8.47026 296.239H66.9775ZM385.523 294.833C385.991 294.725 386.423 294.653 386.892 294.509C393.557 292.96 403.033 289.572 410.167 282.438C417.301 275.303 420.652 265.826 422.238 259.159C422.67 257.286 422.994 255.556 423.246 253.97C423.499 255.556 423.823 257.286 424.255 259.159C425.805 265.826 429.191 275.303 436.325 282.438C443.459 289.572 452.935 292.924 459.601 294.509C460.069 294.617 460.538 294.725 460.97 294.833H385.523ZM459.925 293.176C453.44 291.662 444.216 288.383 437.298 281.465C430.38 274.546 427.138 265.393 425.624 258.871C424.327 253.286 424.039 248.673 423.967 246.944C425.66 247.016 430.272 247.268 435.857 248.601C442.342 250.115 451.566 253.394 458.484 260.312C465.402 267.231 468.645 276.384 470.158 282.906C471.455 288.491 471.743 293.104 471.815 294.833C470.122 294.761 465.51 294.509 459.925 293.176ZM471.815 284.023C471.707 283.555 471.635 283.122 471.491 282.654C469.942 275.987 466.555 266.51 459.421 259.376C452.287 252.241 442.811 248.889 436.145 247.304C434.272 246.872 432.542 246.547 430.957 246.295C432.542 246.043 434.272 245.718 436.145 245.286C442.811 243.737 452.287 240.349 459.421 233.215C466.555 226.08 469.906 216.603 471.491 209.936C471.599 209.468 471.707 208.999 471.815 208.567V284.023ZM470.158 209.612C468.645 216.098 465.366 225.323 458.448 232.242C451.53 239.16 442.379 242.403 435.857 243.917C430.272 245.214 425.66 245.502 423.931 245.574C424.003 243.881 424.255 239.268 425.588 233.647C428.363 221.9 433.479 214.873 437.262 211.053C444.18 204.135 453.332 200.892 459.853 199.378C465.438 198.081 470.05 197.793 471.779 197.721C471.707 199.414 471.455 204.027 470.122 209.612H470.158ZM461.006 197.721C460.538 197.829 460.105 197.901 459.637 198.045C452.971 199.594 443.496 202.982 436.361 210.117C429.227 217.251 425.877 226.728 424.291 233.395C423.859 235.268 423.535 236.998 423.282 238.584C423.03 236.998 422.706 235.268 422.274 233.395C420.724 226.728 417.337 217.251 410.203 210.117C403.069 202.982 393.593 199.63 386.928 198.045C386.459 197.937 385.991 197.829 385.559 197.721H461.006ZM362.499 197.721C362.031 197.829 361.598 197.901 361.13 198.045C354.464 199.594 344.988 202.982 337.854 210.117C330.72 217.251 327.369 226.728 325.784 233.395C325.352 235.268 325.027 236.998 324.775 238.584C324.523 236.998 324.199 235.268 323.766 233.395C322.217 226.728 318.83 217.251 311.696 210.117C304.562 202.982 295.086 199.63 288.421 198.045C287.952 197.937 287.484 197.829 287.051 197.721H362.499ZM263.992 197.721C263.523 197.829 263.091 197.901 262.623 198.045C255.957 199.594 246.481 202.982 239.347 210.117C232.213 217.251 228.862 226.728 227.277 233.395C226.844 235.268 226.52 236.998 226.268 238.584C226.016 236.998 225.692 235.268 225.259 233.395C223.71 226.728 220.323 217.251 213.189 210.117C206.055 202.982 196.579 199.63 189.913 198.045C189.445 197.937 188.977 197.829 188.544 197.721H263.992ZM165.485 197.721C165.016 197.829 164.584 197.901 164.116 198.045C157.45 199.594 147.974 202.982 140.84 210.117C133.706 217.251 130.355 226.728 128.77 233.395C128.337 235.268 128.013 236.998 127.761 238.584C127.509 236.998 127.184 235.268 126.752 233.395C125.203 226.728 121.816 217.251 114.682 210.117C107.548 202.982 98.0717 199.63 91.4061 198.045C90.9377 197.937 90.4693 197.829 90.0369 197.721H165.485ZM66.9775 197.721C66.5091 197.829 66.0767 197.901 65.6083 198.045C58.9427 199.594 49.4667 202.982 42.3326 210.117C35.1986 217.251 31.8478 226.728 30.2625 233.395C29.8301 235.268 29.5058 236.998 29.2536 238.584C29.0014 236.998 28.6771 235.268 28.2448 233.395C26.6954 226.728 23.3086 217.251 16.1746 210.117C9.04053 202.982 -0.435474 199.63 -7.1011 198.045C-7.5695 197.937 -8.0379 197.829 -8.47026 197.721H66.9775ZM385.523 196.315C385.991 196.207 386.423 196.135 386.892 195.991C393.557 194.442 403.033 191.054 410.167 183.919C417.301 176.785 420.652 167.308 422.238 160.641C422.67 158.768 422.994 157.038 423.246 155.452C423.499 157.038 423.823 158.768 424.255 160.641C425.805 167.308 429.191 176.785 436.325 183.919C443.459 191.054 452.935 194.406 459.601 195.991C460.069 196.099 460.538 196.207 460.97 196.315H385.523ZM459.889 194.658C448.143 191.883 441.117 186.766 437.298 182.983C430.38 176.064 427.138 166.911 425.624 160.389C424.327 154.804 424.039 150.191 423.967 148.462C425.66 148.534 430.272 148.786 435.893 150.119C447.639 152.894 454.665 158.011 458.484 161.794C465.402 168.713 468.645 177.866 470.158 184.388C471.455 189.973 471.743 194.586 471.815 196.315C470.122 196.243 465.51 195.991 459.889 194.658ZM471.815 185.505C471.707 185.037 471.635 184.604 471.491 184.136C469.942 177.469 466.555 167.992 459.421 160.858C452.287 153.723 442.811 150.371 436.145 148.786C434.272 148.354 432.542 148.029 430.957 147.777C432.542 147.525 434.272 147.2 436.145 146.768C442.811 145.219 452.287 141.831 459.421 134.697C466.555 127.562 469.906 118.085 471.491 111.418C471.599 110.95 471.707 110.481 471.815 110.049V185.505ZM470.158 111.094C468.645 117.58 465.366 126.805 458.448 133.724C451.53 140.642 442.379 143.885 435.857 145.399C430.272 146.696 425.66 146.984 423.931 147.056C424.003 145.363 424.255 140.75 425.588 135.129C428.363 123.382 433.479 116.355 437.262 112.535C444.18 105.617 453.332 102.374 459.853 100.86C465.438 99.563 470.05 99.2747 471.779 99.2027C471.707 100.896 471.455 105.509 470.122 111.094H470.158ZM461.006 99.2027C460.538 99.3108 460.105 99.3828 459.637 99.527C452.971 101.076 443.496 104.464 436.361 111.599C429.227 118.733 425.877 128.21 424.291 134.877C423.859 136.75 423.535 138.48 423.282 140.066C423.03 138.48 422.706 136.75 422.274 134.877C420.724 128.21 417.337 118.733 410.203 111.599C403.069 104.464 393.593 101.112 386.928 99.527C386.459 99.4189 385.991 99.3108 385.559 99.2027H461.006ZM362.499 99.2027C362.031 99.3108 361.598 99.3828 361.13 99.527C354.464 101.076 344.988 104.464 337.854 111.599C330.72 118.733 327.369 128.21 325.784 134.877C325.352 136.75 325.027 138.48 324.775 140.066C324.523 138.48 324.199 136.75 323.766 134.877C322.217 128.21 318.83 118.733 311.696 111.599C304.562 104.464 295.086 101.112 288.421 99.527C287.952 99.4189 287.484 99.3108 287.051 99.2027H362.499ZM263.992 99.2027C263.523 99.3108 263.091 99.3828 262.623 99.527C255.957 101.076 246.481 104.464 239.347 111.599C232.213 118.733 228.862 128.21 227.277 134.877C226.844 136.75 226.52 138.48 226.268 140.066C226.016 138.48 225.692 136.75 225.259 134.877C223.71 128.21 220.323 118.733 213.189 111.599C206.055 104.464 196.579 101.112 189.913 99.527C189.445 99.4189 188.977 99.3108 188.544 99.2027H263.992ZM165.485 99.2027C165.016 99.3108 164.584 99.3828 164.116 99.527C157.45 101.076 147.974 104.464 140.84 111.599C133.706 118.733 130.355 128.21 128.77 134.877C128.337 136.75 128.013 138.48 127.761 140.066C127.509 138.48 127.184 136.75 126.752 134.877C125.203 128.21 121.816 118.733 114.682 111.599C107.548 104.464 98.0717 101.112 91.4061 99.527C90.9377 99.4189 90.4693 99.3108 90.0369 99.2027H165.485ZM66.9775 99.2027C66.5091 99.3108 66.0767 99.3828 65.6083 99.527C58.9427 101.076 49.4667 104.464 42.3326 111.599C35.1986 118.733 31.8478 128.21 30.2625 134.877C29.8301 136.75 29.5058 138.48 29.2536 140.066C29.0014 138.48 28.6771 136.75 28.2448 134.877C26.6954 128.21 23.3086 118.733 16.1746 111.599C9.04053 104.464 -0.435474 101.112 -7.1011 99.527C-7.5695 99.4189 -8.0379 99.3108 -8.47026 99.2027H66.9775ZM385.523 97.7973C385.991 97.6892 386.423 97.6172 386.892 97.473C393.557 95.9236 403.033 92.5363 410.167 85.4015C417.301 78.2667 420.652 68.7896 422.238 62.1232C422.67 60.2495 422.994 58.5199 423.246 56.9343C423.499 58.5199 423.823 60.2495 424.255 62.1232C425.805 68.7896 429.191 78.2667 436.325 85.4015C443.459 92.5363 452.935 95.8875 459.601 97.473C460.069 97.5811 460.538 97.6892 460.97 97.7973H385.523ZM459.925 96.1397C453.44 94.6263 444.216 91.3471 437.298 84.4285C430.38 77.5099 427.138 68.3572 425.624 61.835C424.327 56.2497 424.039 51.6372 423.967 49.9076C425.66 49.9797 430.272 50.2319 435.857 51.5652C442.342 53.0786 451.566 56.3578 458.484 63.2764C465.402 70.195 468.645 79.3477 470.158 85.87C471.455 91.4553 471.743 96.0677 471.815 97.7973C470.122 97.7253 465.51 97.473 459.925 96.1397ZM471.815 86.987C471.707 86.5186 471.635 86.0861 471.491 85.6177C469.942 78.9513 466.555 69.4743 459.421 62.3395C452.287 55.2047 442.811 51.8535 436.145 50.268C434.272 49.8355 432.542 49.5112 430.957 49.259C432.542 49.0068 434.272 48.6825 436.145 48.25C442.811 46.7006 452.287 43.3133 459.421 36.1785C466.555 29.0437 469.906 19.5667 471.491 12.9003C471.599 12.4319 471.707 11.9634 471.815 11.531V86.987ZM470.158 12.612C467.384 24.3592 462.267 31.3859 458.484 35.2056C451.566 42.1242 442.415 45.3673 435.893 46.8807C430.308 48.178 425.696 48.4663 423.967 48.5383C424.039 46.8447 424.291 42.2323 425.624 36.611C428.399 24.8637 433.515 17.837 437.298 14.0174C444.216 7.09877 453.368 3.85566 459.889 2.34221C465.474 1.04498 470.086 0.756731 471.815 0.684662C471.743 2.37828 471.491 6.99067 470.158 12.612ZM461.006 0.684662C460.538 0.792765 460.105 0.864821 459.637 1.00896C452.971 2.55844 443.496 5.94564 436.361 13.0804C429.227 20.2153 425.877 29.6923 424.291 36.3587C423.859 38.2325 423.535 39.9621 423.282 41.5476C423.03 39.9621 422.706 38.2325 422.274 36.3587C420.724 29.6923 417.337 20.2153 410.203 13.0804C403.069 5.94564 393.593 2.59447 386.928 1.00896C386.459 0.900855 385.991 0.792765 385.559 0.684662H461.006ZM362.499 0.684662C362.031 0.792765 361.598 0.864821 361.13 1.00896C354.464 2.55844 344.988 5.94564 337.854 13.0804C330.72 20.2153 327.369 29.6923 325.784 36.3587C325.352 38.2325 325.027 39.9621 324.775 41.5476C324.523 39.9621 324.199 38.2325 323.766 36.3587C322.217 29.6923 318.83 20.2153 311.696 13.0804C304.562 5.94564 295.086 2.59447 288.421 1.00896C287.952 0.900855 287.484 0.792765 287.051 0.684662H362.499ZM263.992 0.684662C263.523 0.792765 263.091 0.864821 262.623 1.00896C255.957 2.55844 246.481 5.94564 239.347 13.0804C232.213 20.2153 228.862 29.6923 227.277 36.3587C226.844 38.2325 226.52 39.9621 226.268 41.5476C226.016 39.9621 225.692 38.2325 225.259 36.3587C223.71 29.6923 220.323 20.2153 213.189 13.0804C206.055 5.94564 196.579 2.59447 189.913 1.00896C189.445 0.900855 188.977 0.792765 188.544 0.684662H263.992ZM165.485 0.684662C165.016 0.792765 164.584 0.864821 164.116 1.00896C157.45 2.55844 147.974 5.94564 140.84 13.0804C133.706 20.2153 130.355 29.6923 128.77 36.3587C128.337 38.2325 128.013 39.9621 127.761 41.5476C127.509 39.9621 127.184 38.2325 126.752 36.3587C125.203 29.6923 121.816 20.2153 114.682 13.0804C107.548 5.94564 98.0717 2.59447 91.4061 1.00896C90.9377 0.900855 90.4693 0.792765 90.0369 0.684662H165.485ZM66.9775 0.684662C66.5091 0.792765 66.0767 0.864821 65.6083 1.00896C58.9427 2.55844 49.4667 5.94564 42.3326 13.0804C35.1986 20.2153 31.8478 29.6923 30.2625 36.3587C29.8301 38.2325 29.5058 39.9621 29.2536 41.5476C29.0014 39.9621 28.6771 38.2325 28.2448 36.3587C26.6954 29.6923 23.3086 20.2153 16.1746 13.0804C9.04053 5.94564 -0.435474 2.59447 -7.1011 1.00896C-7.5695 0.900855 -8.0379 0.792765 -8.47026 0.684662H66.9775Z" fill="#E0E0E0"/>
</svg>
